<svg width="464" height="421" viewBox="0 0 464 421" fill="none" xmlns="http://www.w3.org/2000/svg">
<path d="M395.698 389.006C305.288 431.106 158.711 431.119 68.3015 389.006C-22.1084 346.892 -22.0953 278.638 68.3015 236.537C158.698 194.436 305.288 194.436 395.698 236.537C486.108 278.638 486.095 346.905 395.698 389.006Z" fill="#F5F5F5" fill-opacity="0.37"/>
<path d="M68.6168 357.891C51.9656 357.891 38.4671 351.606 38.4671 343.854C38.4671 336.101 51.9656 329.816 68.6168 329.816C85.2681 329.816 98.7666 336.101 98.7666 343.854C98.7666 351.606 85.2681 357.891 68.6168 357.891Z" fill="#EBEBEB" fill-opacity="0.5"/>
<path d="M402.56 345.866L391.893 339.854C385.938 335.105 381.405 328.873 378.773 321.816C375.48 312.945 375.939 306.201 378.301 302.817C381.2 298.65 388.718 299.381 389.02 308.15C389.649 325.431 394.806 337.418 402.56 345.866Z" fill="#407BFF"/>
<path opacity="0.2" d="M402.56 345.866L391.893 339.854C385.938 335.105 381.405 328.873 378.773 321.816C375.48 312.945 375.939 306.201 378.301 302.817C381.2 298.65 388.718 299.381 389.02 308.15C389.649 325.431 394.806 337.418 402.56 345.866Z" fill="black"/>
<path d="M402.56 346.507C402.698 346.506 402.833 346.461 402.944 346.38C403.056 346.298 403.138 346.185 403.179 346.055C403.219 345.925 403.217 345.786 403.172 345.658C403.127 345.529 403.041 345.418 402.927 345.341C378.261 328.675 383.037 305.432 383.089 305.201C383.108 305.117 383.109 305.03 383.092 304.946C383.076 304.861 383.043 304.781 382.995 304.709C382.947 304.636 382.884 304.574 382.812 304.526C382.739 304.477 382.657 304.443 382.571 304.426C382.485 304.408 382.396 304.407 382.31 304.423C382.223 304.439 382.141 304.471 382.067 304.518C381.993 304.565 381.93 304.626 381.88 304.697C381.83 304.768 381.796 304.848 381.777 304.932C381.777 305.176 376.739 329.213 402.14 346.392C402.263 346.474 402.41 346.515 402.56 346.507Z" fill="white"/>
<path d="M423.932 357.93C423.932 357.93 427.645 354.981 426.753 350.982C425.861 346.982 423.46 344.11 427.566 338.956C431.673 333.803 432.814 326.931 427.908 323.213C424.168 320.329 418.33 324.406 416.231 316.803C414.683 311.24 415.207 298.92 407.952 294.817C400.697 290.715 396.144 296.894 397.285 305.253C398.283 312.727 399.7 319.919 398.597 321.919C396.472 325.765 392.838 325.239 393.008 332.264C393.153 338.803 399.49 344.213 399.49 344.213L423.932 357.93Z" fill="#407BFF"/>
<path d="M411.743 351.661C411.904 351.659 412.058 351.602 412.179 351.498C412.299 351.394 412.377 351.252 412.399 351.097C414.276 335.905 409.775 309.675 406.102 301.881C406.071 301.794 406.021 301.715 405.957 301.649C405.892 301.583 405.813 301.531 405.726 301.497C405.639 301.463 405.546 301.448 405.452 301.452C405.358 301.456 405.267 301.48 405.183 301.522C405.105 301.556 405.035 301.606 404.976 301.667C404.918 301.729 404.873 301.801 404.843 301.88C404.814 301.959 404.801 302.043 404.805 302.127C404.81 302.21 404.831 302.293 404.869 302.368C408.503 310.06 412.846 336.367 411.048 350.892C411.03 351.06 411.08 351.228 411.188 351.36C411.296 351.493 411.453 351.578 411.625 351.597L411.743 351.661Z" fill="white"/>
<path d="M412.098 339.828C412.198 339.833 412.298 339.811 412.386 339.764C416.939 337.597 419.826 329.867 419.944 329.508C419.976 329.428 419.991 329.343 419.989 329.257C419.987 329.172 419.967 329.087 419.931 329.009C419.895 328.931 419.843 328.861 419.779 328.803C419.715 328.744 419.639 328.699 419.556 328.67C419.474 328.641 419.386 328.628 419.299 328.633C419.211 328.637 419.125 328.659 419.046 328.697C418.968 328.734 418.897 328.787 418.839 328.851C418.782 328.916 418.738 328.991 418.71 329.072C418.71 329.149 415.89 336.636 411.809 338.572C411.675 338.635 411.567 338.741 411.503 338.872C411.439 339.003 411.422 339.152 411.456 339.293C411.49 339.435 411.571 339.561 411.688 339.651C411.805 339.742 411.949 339.79 412.098 339.79V339.828Z" fill="white"/>
<path d="M412.177 344.956C412.308 344.956 412.436 344.917 412.544 344.844C412.652 344.77 412.734 344.666 412.78 344.546C412.845 344.39 412.845 344.214 412.778 344.058C412.712 343.902 412.585 343.778 412.426 343.713C404.764 340.713 399.988 331.803 399.936 331.7C399.856 331.549 399.717 331.435 399.551 331.383C399.385 331.332 399.205 331.347 399.05 331.425C398.895 331.503 398.778 331.638 398.726 331.8C398.673 331.963 398.688 332.139 398.768 332.29C398.978 332.675 403.819 341.726 411.888 344.905C411.978 344.947 412.077 344.964 412.177 344.956Z" fill="white"/>
<path d="M144.358 275.985C144.358 275.985 150.092 266.908 150.656 257.049C151.22 247.191 149.003 243.088 145.959 241.909C142.915 240.73 142.679 244.358 141.117 246.499C139.556 248.639 136.368 247.422 135.187 240.742C134.006 234.063 129.703 222.794 120.755 220.602C110.915 218.218 116.189 229.499 118.669 233.896C121.149 238.294 123.064 244.294 121.437 245.922C119.811 247.55 117.278 244.537 114.877 247.332C111.952 250.704 121.044 262.844 126.266 265.78L144.358 275.985Z" fill="#407BFF"/>
<path d="M136.499 272.177C136.585 272.174 136.67 272.154 136.748 272.118C136.827 272.083 136.897 272.033 136.955 271.971C137.014 271.909 137.059 271.837 137.089 271.758C137.119 271.679 137.132 271.595 137.129 271.51C136.24 255.651 131.179 240.285 122.434 226.897C122.385 226.827 122.321 226.768 122.248 226.723C122.174 226.678 122.092 226.648 122.006 226.634C121.92 226.621 121.833 226.625 121.748 226.646C121.664 226.667 121.585 226.704 121.516 226.756C121.379 226.856 121.286 227.004 121.26 227.169C121.233 227.335 121.273 227.504 121.372 227.64C129.96 240.833 134.93 255.962 135.804 271.574C135.809 271.659 135.831 271.741 135.868 271.817C135.906 271.893 135.959 271.961 136.023 272.017C136.088 272.073 136.163 272.116 136.245 272.143C136.327 272.171 136.413 272.182 136.499 272.177Z" fill="white"/>
<path d="M135.751 264.6C135.861 264.599 135.969 264.573 136.066 264.524C139.74 262.536 141.773 256.639 141.852 256.396C141.881 256.316 141.893 256.231 141.889 256.146C141.884 256.062 141.862 255.979 141.824 255.902C141.786 255.826 141.733 255.758 141.668 255.702C141.603 255.646 141.527 255.603 141.445 255.575C141.28 255.523 141.1 255.536 140.945 255.613C140.79 255.69 140.673 255.824 140.619 255.985C140.619 255.985 138.651 261.665 135.371 263.395C135.222 263.481 135.113 263.62 135.067 263.782C135.02 263.945 135.04 264.118 135.122 264.267C135.181 264.377 135.272 264.468 135.384 264.527C135.497 264.587 135.624 264.612 135.751 264.6Z" fill="white"/>
<path d="M135.108 260.716C135.254 260.714 135.394 260.666 135.508 260.578C135.622 260.489 135.703 260.367 135.738 260.229C135.76 260.148 135.764 260.064 135.752 259.981C135.74 259.898 135.711 259.819 135.667 259.747C135.623 259.676 135.565 259.613 135.496 259.564C135.427 259.515 135.349 259.479 135.266 259.46C125.793 257.114 122.513 252.268 122.487 252.216C122.44 252.145 122.38 252.083 122.309 252.034C122.238 251.985 122.158 251.951 122.073 251.932C121.988 251.914 121.901 251.912 121.815 251.927C121.73 251.941 121.648 251.972 121.575 252.018C121.502 252.063 121.438 252.122 121.389 252.192C121.339 252.261 121.303 252.339 121.284 252.422C121.266 252.505 121.264 252.59 121.279 252.674C121.293 252.757 121.325 252.837 121.372 252.909C121.516 253.127 124.927 258.216 134.938 260.703L135.108 260.716Z" fill="white"/>
<path d="M287.104 256.062C287.104 256.062 299.686 253.062 300.342 230.038C301.037 205.192 297.259 176.194 312.15 173.848C327.041 171.502 335.307 189.232 335.123 209.936C334.952 228.063 327.474 267.421 287.156 275.138L287.104 256.062Z" fill="#407BFF"/>
<path opacity="0.2" d="M287.104 256.062C287.104 256.062 299.686 253.062 300.342 230.038C301.037 205.192 297.259 176.194 312.15 173.848C327.041 171.502 335.307 189.232 335.123 209.936C334.952 228.063 327.474 267.421 287.156 275.138L287.104 256.062Z" fill="black"/>
<path d="M287.104 272.779H287.222C296.288 271.164 303.674 266.28 309.172 258.28C325.467 234.525 320.337 190.167 318.644 182.424C318.606 182.259 318.505 182.115 318.36 182.022C318.216 181.928 318.04 181.894 317.87 181.924C317.7 181.964 317.553 182.066 317.457 182.209C317.362 182.352 317.327 182.525 317.358 182.693C319.025 190.385 324.128 234.178 308.083 257.562C305.747 261.188 302.666 264.301 299.034 266.702C295.402 269.103 291.299 270.74 286.986 271.51C286.9 271.526 286.818 271.557 286.746 271.604C286.673 271.65 286.61 271.711 286.561 271.781C286.512 271.851 286.478 271.931 286.461 272.014C286.444 272.097 286.444 272.183 286.461 272.267C286.489 272.413 286.569 272.544 286.686 272.638C286.804 272.732 286.952 272.782 287.104 272.779Z" fill="white"/>
<path d="M287.104 331.867C300.106 333.585 321.216 333.559 333.404 324.175C345.593 314.791 343.048 306.714 338.364 303.342C333.68 299.971 329.613 296.125 337.668 288.638C345.724 281.151 358.66 269.126 362.859 251.088C367.057 233.05 364.984 221.769 356.745 218.012C348.755 214.371 346.642 220.166 341.749 232.114C336.855 244.063 325.847 233.819 316.427 237.55C307.007 241.281 307.387 248.665 306.797 255.011C306.207 261.357 303.097 263.113 297.757 263.113C292.417 263.113 287.104 266.113 287.104 272.087V331.867Z" fill="#407BFF"/>
<path d="M287.104 310.919C287.16 310.931 287.218 310.931 287.274 310.919C287.839 310.765 301.287 306.945 320.875 289.369C341.736 270.651 351.576 242.576 351.681 242.294C351.731 242.132 351.715 241.958 351.637 241.807C351.559 241.657 351.424 241.542 351.261 241.486C351.097 241.433 350.919 241.445 350.764 241.519C350.609 241.593 350.491 241.724 350.434 241.883C350.342 242.165 340.594 269.933 319.983 288.42C300.67 305.765 287.065 309.65 286.92 309.688C286.837 309.712 286.76 309.751 286.693 309.804C286.626 309.857 286.57 309.922 286.529 309.995C286.487 310.069 286.461 310.15 286.452 310.234C286.442 310.318 286.45 310.402 286.474 310.483C286.517 310.613 286.601 310.725 286.715 310.804C286.828 310.882 286.965 310.923 287.104 310.919Z" fill="white"/>
<path d="M315.404 293.83C315.536 293.832 315.665 293.793 315.773 293.72C315.881 293.646 315.963 293.541 316.007 293.42C320.219 282.856 321.176 260.254 321.255 259.293C321.259 259.124 321.195 258.96 321.078 258.835C320.96 258.711 320.798 258.636 320.625 258.626C320.454 258.629 320.29 258.693 320.164 258.806C320.038 258.92 319.959 259.075 319.943 259.242C319.943 259.472 318.959 282.587 314.826 292.958C314.795 293.037 314.78 293.122 314.782 293.207C314.784 293.291 314.803 293.375 314.838 293.453C314.874 293.53 314.925 293.6 314.988 293.658C315.051 293.716 315.126 293.762 315.207 293.791C315.27 293.814 315.337 293.827 315.404 293.83Z" fill="white"/>
<path d="M315.508 309.022C316.718 309.031 317.927 308.971 319.129 308.842C319.216 308.832 319.299 308.805 319.374 308.764C319.45 308.722 319.517 308.667 319.57 308.6C319.624 308.533 319.663 308.457 319.687 308.375C319.71 308.294 319.717 308.208 319.707 308.124C319.696 308.04 319.669 307.959 319.627 307.885C319.584 307.811 319.527 307.746 319.459 307.693C319.391 307.641 319.313 307.602 319.229 307.579C319.145 307.557 319.058 307.55 318.972 307.56C318.854 307.56 306.639 308.919 301.037 303.342C300.979 303.275 300.907 303.22 300.826 303.181C300.744 303.142 300.656 303.12 300.566 303.116C300.475 303.112 300.385 303.126 300.301 303.158C300.216 303.189 300.14 303.238 300.075 303.3C300.011 303.362 299.96 303.436 299.927 303.518C299.893 303.6 299.877 303.688 299.88 303.776C299.883 303.864 299.904 303.951 299.943 304.031C299.982 304.111 300.037 304.182 300.105 304.24C304.16 308.329 311.231 309.022 315.508 309.022Z" fill="white"/>
<path d="M274.141 349.02L150.813 279.433C150.541 279.34 150.306 279.166 150.139 278.937C149.973 278.707 149.883 278.432 149.883 278.151C149.883 277.87 149.973 277.595 150.139 277.365C150.306 277.136 150.541 276.962 150.813 276.869L162.214 270.459C162.92 270.112 163.7 269.931 164.49 269.931C165.281 269.931 166.06 270.112 166.767 270.459L290.134 339.982C290.406 340.075 290.641 340.249 290.808 340.478C290.974 340.708 291.063 340.982 291.063 341.264C291.063 341.545 290.974 341.82 290.808 342.049C290.641 342.279 290.406 342.452 290.134 342.546L278.693 348.956C277.992 349.313 277.215 349.505 276.425 349.516C275.634 349.527 274.852 349.357 274.141 349.02Z" fill="#E0E0E0"/>
<path d="M154.198 10.7643L265.403 73.5054C267.056 74.5595 268.432 75.9793 269.419 77.6498C270.406 79.3202 270.976 81.1944 271.084 83.1204V340.892C271.084 344.43 268.539 345.866 265.403 344.097L154.198 281.356C152.543 280.304 151.165 278.885 150.178 277.214C149.191 275.543 148.622 273.668 148.517 271.741V13.9693C148.517 10.431 151.049 8.99512 154.198 10.7643Z" fill="#455A64"/>
<path d="M265.403 73.5054L154.198 10.7643C151.39 9.1746 149.068 10.1617 148.595 12.918C148.858 11.1851 149.492 9.52605 150.458 8.05004C151.424 6.57403 152.698 5.31449 154.198 4.35428L158.816 1.79028C160.576 0.9175 162.523 0.462646 164.497 0.462646C166.471 0.462646 168.417 0.9175 170.178 1.79028L281.396 64.4801C283.071 65.5064 284.452 66.9311 285.411 68.6209L269.417 77.5949C268.459 75.9185 267.077 74.5103 265.403 73.5054Z" fill="#37474F"/>
<path d="M287.104 331.867C286.996 333.793 286.425 335.667 285.438 337.337C284.451 339.008 283.076 340.428 281.423 341.482L276.791 344.046C275.188 344.829 273.434 345.273 271.643 345.348C269.853 345.423 268.066 345.128 266.4 344.482C269.024 345.482 271.11 344.007 271.11 340.841V83.1203C271.045 81.1861 270.471 79.301 269.444 77.6461L285.437 68.6721C286.45 70.3145 287.023 72.1794 287.104 74.095V331.867Z" fill="#263238"/>
<path d="M262.346 107.85L157.215 48.5577C155.326 47.5065 153.804 48.3654 153.804 50.4807V241.268C153.867 242.424 154.209 243.55 154.802 244.552C155.395 245.555 156.222 246.406 157.215 247.037L262.307 306.329C264.196 307.393 265.718 306.535 265.718 304.406V113.619C265.658 112.467 265.322 111.344 264.736 110.342C264.15 109.34 263.332 108.486 262.346 107.85Z" fill="white"/>
<path d="M209.8 51.9037C210.38 52.2759 210.863 52.7761 211.21 53.3639C211.556 53.9518 211.756 54.6108 211.794 55.2881C211.794 56.5701 210.902 57.0445 209.8 56.4163C209.218 56.0463 208.733 55.5467 208.387 54.9584C208.04 54.3701 207.841 53.7098 207.806 53.0318C207.806 51.7883 208.698 51.2883 209.8 51.9037Z" fill="#37474F"/>
<path d="M209.8 285.805C212.094 287.271 214.002 289.244 215.369 291.565C216.737 293.886 217.526 296.489 217.672 299.163C217.672 304.073 214.143 306.073 209.8 303.612C207.508 302.145 205.6 300.171 204.233 297.851C202.865 295.53 202.076 292.927 201.928 290.253C201.902 285.343 205.445 283.343 209.8 285.805Z" fill="#37474F"/>
<path d="M228.68 71.749C229.833 72.4969 230.79 73.4992 231.473 74.675C232.157 75.8508 232.548 77.1672 232.616 78.5179C232.616 81.005 230.831 82.0178 228.68 80.7742C227.514 80.0334 226.545 79.0342 225.849 77.858C225.154 76.6818 224.753 75.3617 224.678 74.0053C224.678 71.5182 226.462 70.5054 228.68 71.749Z" fill="#37474F"/>
<path d="M218.879 70.9028C218.879 72.5694 217.567 73.1976 216.032 72.313L189.792 57.4803C188.98 56.9843 188.298 56.3078 187.803 55.5058C187.309 54.7038 187.015 53.799 186.945 52.8651C186.945 51.2113 188.257 50.5831 189.792 51.4677L216.032 66.3005C216.843 66.7952 217.524 67.4697 218.019 68.2693C218.513 69.0689 218.808 69.9711 218.879 70.9028Z" fill="#37474F"/>
<path d="M278.234 116.106C277.303 116.699 276.528 117.498 275.972 118.437C275.416 119.377 275.094 120.432 275.033 121.516C275.033 123.516 276.463 124.324 278.234 123.324C279.162 122.729 279.934 121.93 280.488 120.99C281.042 120.05 281.362 118.997 281.422 117.914C281.422 115.927 279.992 115.119 278.234 116.106Z" fill="#37474F"/>
<path d="M278.234 140.182C277.303 140.775 276.528 141.573 275.972 142.513C275.416 143.453 275.094 144.508 275.033 145.592C275.033 147.579 276.463 148.387 278.234 147.4C279.162 146.805 279.934 146.006 280.488 145.066C281.042 144.126 281.362 143.072 281.422 141.99C281.422 139.99 279.992 139.182 278.234 140.182Z" fill="#37474F"/>
<path d="M279.231 116.593C278.3 117.186 277.525 117.985 276.969 118.925C276.413 119.865 276.091 120.919 276.03 122.003C276.03 123.991 277.46 124.798 279.231 123.811C280.162 123.219 280.937 122.42 281.494 121.48C282.05 120.54 282.372 119.485 282.433 118.401C282.419 116.401 280.989 115.632 279.231 116.593Z" fill="#455A64"/>
<path d="M279.231 140.657C278.299 141.25 277.522 142.051 276.966 142.993C276.41 143.936 276.089 144.993 276.03 146.079C276.03 148.067 277.46 148.874 279.231 147.874C280.165 147.284 280.941 146.486 281.498 145.545C282.054 144.605 282.375 143.549 282.433 142.464C282.419 140.477 280.989 139.669 279.231 140.657Z" fill="#455A64"/>
<path d="M132.523 56.5189C132.523 54.3908 134.045 53.5319 135.935 54.5959L148.517 61.6854L241.026 113.888C242.019 114.519 242.846 115.371 243.439 116.373C244.032 117.376 244.374 118.501 244.437 119.657V310.393C244.437 312.522 242.915 313.38 241.026 312.316L148.477 260.101L135.935 253.024C134.941 252.393 134.114 251.542 133.521 250.539C132.928 249.536 132.586 248.411 132.523 247.255V56.5189Z" fill="white"/>
<path d="M131.211 56.519C131.129 55.8761 131.242 55.2237 131.537 54.6433C131.832 54.063 132.295 53.5805 132.87 53.2562C133.444 52.932 134.103 52.7803 134.765 52.8202C135.427 52.8601 136.062 53.0899 136.591 53.4806L148.595 60.2624L241.682 112.824C242.88 113.564 243.877 114.577 244.585 115.776C245.294 116.975 245.693 118.325 245.749 119.709V310.393C245.802 311.034 245.676 311.676 245.385 312.251C245.094 312.827 244.648 313.315 244.096 313.663C243.626 313.929 243.091 314.067 242.548 314.06C241.779 314.037 241.029 313.82 240.37 313.432L147.218 260.87L135.239 254.114C134.048 253.367 133.056 252.353 132.349 251.155C131.641 249.957 131.238 248.611 131.172 247.229L131.211 56.519ZM148.569 258.678L149.645 259.293L241.629 311.188C241.784 311.304 241.963 311.385 242.154 311.425C242.344 311.465 242.542 311.463 242.731 311.419C242.902 311.316 243.073 310.958 243.073 310.368V119.657C243.005 118.727 242.721 117.823 242.244 117.015C241.767 116.206 241.108 115.514 240.317 114.991L148.425 63.07L135.305 55.6472C135.15 55.5312 134.971 55.4502 134.78 55.4103C134.59 55.3704 134.393 55.3725 134.203 55.4165C134.032 55.519 133.862 55.878 133.862 56.4677V247.255C133.93 248.186 134.213 249.089 134.69 249.898C135.167 250.706 135.826 251.398 136.617 251.921L148.595 258.678H148.569Z" fill="#407BFF"/>
<path d="M188.48 100.838C176.672 94.1968 167.16 99.5555 167.16 112.875C167.16 126.195 176.712 142.361 188.48 148.951C200.249 155.54 209.8 150.233 209.8 136.926C209.8 123.619 200.249 107.491 188.48 100.838Z" fill="#407BFF"/>
<path d="M188.48 111.299C184.662 109.145 181.566 110.889 181.566 115.145C181.696 117.49 182.389 119.771 183.591 121.805C184.792 123.839 186.467 125.567 188.48 126.849C192.298 129.003 195.395 127.26 195.395 123.003C195.265 120.659 194.571 118.377 193.37 116.343C192.168 114.31 190.493 112.581 188.48 111.299Z" fill="#407BFF"/>
<path d="M175.006 134.272C175.006 127.195 180.084 124.324 186.368 127.862L190.304 130.08C196.575 133.618 201.666 142.233 201.666 149.31V151.22C198.032 152.387 193.466 151.759 188.546 148.951C183.096 145.666 178.487 141.206 175.072 135.913L175.006 134.272Z" fill="#407BFF"/>
<path opacity="0.7" d="M188.48 111.299C184.662 109.145 181.566 110.889 181.566 115.145C181.696 117.49 182.389 119.771 183.591 121.805C184.792 123.839 186.467 125.567 188.48 126.849C192.298 129.003 195.395 127.26 195.395 123.003C195.265 120.659 194.571 118.377 193.37 116.343C192.168 114.31 190.493 112.581 188.48 111.299Z" fill="white"/>
<path opacity="0.7" d="M175.006 134.272C175.006 127.195 180.084 124.324 186.368 127.862L190.304 130.08C196.575 133.618 201.666 142.233 201.666 149.31V151.22C198.032 152.387 193.466 151.759 188.546 148.951C183.096 145.666 178.487 141.206 175.072 135.913L175.006 134.272Z" fill="white"/>
<path d="M229.73 178.245L202.296 162.771C200.984 162.066 200.026 162.63 200.026 164.053V164.938C200.068 165.708 200.295 166.458 200.689 167.126C201.084 167.795 201.634 168.363 202.296 168.784L229.73 184.257C230.976 184.962 232 184.386 232 182.975V182.091C231.957 181.321 231.729 180.571 231.335 179.903C230.941 179.235 230.391 178.667 229.73 178.245Z" fill="#407BFF"/>
<path opacity="0.1" d="M229.73 178.245L202.296 162.771C200.984 162.066 200.026 162.63 200.026 164.053V164.938C200.068 165.708 200.295 166.458 200.689 167.126C201.084 167.795 201.634 168.363 202.296 168.784L229.73 184.257C230.976 184.962 232 184.386 232 182.975V182.091C231.957 181.321 231.729 180.571 231.335 179.903C230.941 179.235 230.391 178.667 229.73 178.245Z" fill="black"/>
<path d="M230.858 196.923L147.861 150.105C147.244 149.746 146.733 150.028 146.733 150.746V160.207C146.756 160.591 146.87 160.964 147.065 161.298C147.261 161.632 147.534 161.917 147.861 162.13L230.858 208.949C231.488 209.308 232 209.013 232 208.308V198.846C231.977 198.461 231.862 198.086 231.664 197.752C231.465 197.418 231.189 197.134 230.858 196.923Z" fill="#407BFF"/>
<path opacity="0.2" d="M230.858 196.923L147.861 150.105C147.244 149.746 146.733 150.028 146.733 150.746V160.207C146.756 160.591 146.87 160.964 147.065 161.298C147.261 161.632 147.534 161.917 147.861 162.13L230.858 208.949C231.488 209.308 232 209.013 232 208.308V198.846C231.977 198.461 231.862 198.086 231.664 197.752C231.465 197.418 231.189 197.134 230.858 196.923Z" fill="white"/>
<path d="M229.73 220.333L202.296 204.859C200.984 204.154 200.026 204.731 200.026 206.141V207.026C200.067 207.796 200.293 208.547 200.688 209.215C201.082 209.884 201.633 210.451 202.296 210.872L229.73 226.345C230.976 227.063 232 226.486 232 225.063V224.179C231.955 223.409 231.726 222.66 231.332 221.992C230.938 221.324 230.389 220.756 229.73 220.333Z" fill="#407BFF"/>
<path opacity="0.1" d="M229.73 220.333L202.296 204.859C200.984 204.154 200.026 204.731 200.026 206.141V207.026C200.067 207.796 200.293 208.547 200.688 209.215C201.082 209.884 201.633 210.451 202.296 210.872L229.73 226.345C230.976 227.063 232 226.486 232 225.063V224.179C231.955 223.409 231.726 222.66 231.332 221.992C230.938 221.324 230.389 220.756 229.73 220.333Z" fill="black"/>
<path d="M230.858 239.011L147.861 192.193C147.244 191.834 146.733 192.129 146.733 192.834V202.295C146.756 202.679 146.87 203.052 147.065 203.386C147.261 203.72 147.534 204.005 147.861 204.218L230.858 251.037C231.488 251.396 232 251.114 232 250.396V240.934C231.977 240.549 231.862 240.174 231.664 239.84C231.465 239.506 231.189 239.222 230.858 239.011Z" fill="#407BFF"/>
<path opacity="0.2" d="M230.858 239.011L147.861 192.193C147.244 191.834 146.733 192.129 146.733 192.834V202.295C146.756 202.679 146.87 203.052 147.065 203.386C147.261 203.72 147.534 204.005 147.861 204.218L230.858 251.037C231.488 251.396 232 251.114 232 250.396V240.934C231.977 240.549 231.862 240.174 231.664 239.84C231.465 239.506 231.189 239.222 230.858 239.011Z" fill="white"/>
<path d="M197.756 244.383L164.956 225.909C163.644 225.192 162.673 225.768 162.673 227.191V237.088C162.716 237.86 162.945 238.611 163.342 239.279C163.739 239.948 164.292 240.515 164.956 240.934L197.756 259.421C199.068 260.126 200.026 259.549 200.026 258.139V248.229C199.98 247.46 199.751 246.711 199.357 246.043C198.963 245.376 198.415 244.807 197.756 244.383Z" fill="#407BFF"/>
<path opacity="0.1" d="M197.756 244.383L164.956 225.909C163.644 225.192 162.673 225.768 162.673 227.191V237.088C162.716 237.86 162.945 238.611 163.342 239.279C163.739 239.948 164.292 240.515 164.956 240.934L197.756 259.421C199.068 260.126 200.026 259.549 200.026 258.139V248.229C199.98 247.46 199.751 246.711 199.357 246.043C198.963 245.376 198.415 244.807 197.756 244.383Z" fill="black"/>
<path d="M120.086 202.616C120.086 202.616 136.198 180.899 137.142 178.258C137.89 176.309 137.142 173.412 136.906 172.066C136.67 170.72 136.46 167.72 136.224 166.938C135.83 165.476 137.759 165.771 138.848 167.104C139.937 168.438 140.304 171.104 140.868 171.54C141.433 171.976 145.723 165.861 147.966 163.04C150.21 160.22 151.614 158.502 152.991 159.553C153.975 160.31 153.241 161.951 151.614 164.361C150.664 165.659 149.788 167.007 148.99 168.399C148.74 168.925 150.079 168.963 150.8 170.053C151.364 170.899 150.8 172.271 151.587 172.925C152.072 173.285 152.404 173.807 152.52 174.391C152.636 174.974 152.528 175.58 152.217 176.091C150.757 178.332 148.873 180.281 146.667 181.834C144.253 183.463 143.283 184.039 141.852 186.257C140.422 188.475 127.591 211.128 126.725 212.487C125.859 213.846 124.193 216.615 121.661 216.692C119.129 216.769 98.399 199.334 97.3362 198.462C93.925 195.68 92.8361 195.283 92.2588 197.783C92.0594 198.671 91.9105 199.57 91.8127 200.475C91.406 203.654 89.1887 215.013 89.1887 215.013C89.1887 215.013 78.6927 219.974 70.0729 217.577C61.453 215.179 58.5404 211.602 58.5404 211.602L62.8569 204.731C61.6892 201.898 56.2969 190.411 54.5519 182.373L81.5791 178.104C82.1302 177.988 83.0224 177.771 84.2031 177.476C85.6857 177.091 89.4511 175.822 92.2982 178.258C101.587 186.168 120.06 202.616 120.06 202.616" fill="#FFA8A7"/>
<path d="M66.5039 335.867L71.3452 342.443C69.145 343.447 66.7409 343.951 64.3129 343.918C59.9702 344.072 58.7763 342.636 58.6188 342.354C57.8841 340.815 59.0255 338.046 59.3404 335.662L66.5039 335.867Z" fill="#37474F"/>
<path d="M71.0699 339.29C71.0699 339.29 76.9476 338.918 81.0017 338.431C85.0558 337.944 88.2702 339.866 87.3256 341.495C86.3809 343.123 84.1374 344.482 80.6475 345.623C77.6692 346.61 74.0875 347.315 70.9911 348.187C67.8948 349.058 65.7431 350.199 63.9457 349.584C61.9383 348.905 61.0724 348.123 61.243 346.687C61.6811 344.644 62.2241 342.625 62.8699 340.636L71.0699 339.29Z" fill="#37474F"/>
<path d="M58.6187 329.264C58.6187 329.264 59.3534 335.239 59.4059 336.521C59.4584 337.803 65.3755 338.213 66.5038 335.867L66.6875 328.559L58.6187 329.264Z" fill="#F28F8F"/>
<path d="M64.5755 332.931L62.4632 342.007C62.4632 342.007 62.2664 343.11 67.0945 343.815C71.9227 344.52 79.5061 341.341 80.805 340.7C82.1038 340.059 82.2481 338.764 77.4987 339.02C72.7492 339.277 71.0699 339.29 71.0699 339.29L72.618 335.277L64.5755 332.931Z" fill="#FFA8A7"/>
<path d="M54.6302 182.296L51.2846 181.386C51.2846 181.386 44.2916 203.013 43.5175 205.103C42.7435 207.192 41.8644 209.397 43.3732 211.974C45.1707 215.038 54.6302 227.358 54.6302 227.358L60.6392 221.615L53.8167 209.41L59.852 197.488L54.6302 182.296Z" fill="#F28F8F"/>
<path d="M88.9921 154.207C89.7764 152.769 90.1745 151.159 90.1493 149.529C90.124 147.899 89.6762 146.302 88.8478 144.887C85.5153 138.849 78.0893 135.913 69.2465 137.028C65.153 137.554 60.3249 140.874 57.6878 145.836C54.7751 151.336 54.4996 162.412 53.7518 166.604L88.9921 154.207Z" fill="#37474F"/>
<path d="M89.2279 156.579C89.2279 156.579 91.3271 160.489 90.9598 160.848C90.4157 161.159 89.821 161.376 89.2017 161.489L89.2279 156.579Z" fill="#FFA8A7"/>
<path d="M82.8511 144.22C85.134 145.669 89.07 148.336 89.2405 157.117C89.4242 166.091 88.1122 169.053 86.7478 170.091C85.8294 170.796 80.437 170.437 78.1279 169.912C75.8188 169.386 69.1669 166.168 66.766 161.284C63.9452 155.54 64.5225 147.182 68.7078 144.618C70.838 143.387 73.2532 142.705 75.7269 142.635C78.2007 142.566 80.652 143.111 82.8511 144.22Z" fill="#FFA8A7"/>
<path d="M58.6193 211.551C54.5783 217.705 50.7472 223.089 49.9076 230.038C48.1757 244.64 53.8436 261.331 55.0637 272.139C52.7691 275.213 51.4464 278.876 51.2589 282.677C51.2589 287.151 58.6193 329.265 58.6193 329.265C58.6193 329.265 63.9722 330.854 66.688 328.559L71.7393 251.088L69.1153 241.653L58.6193 211.551Z" fill="#407BFF"/>
<path opacity="0.2" d="M58.6193 211.551C54.5783 217.705 50.7472 223.089 49.9076 230.038C48.1757 244.64 53.8436 261.331 55.0637 272.139C52.7691 275.213 51.4464 278.876 51.2589 282.677C51.2589 287.151 58.6193 329.265 58.6193 329.265C58.6193 329.265 63.9722 330.854 66.688 328.559L71.7393 251.088L69.1153 241.653L58.6193 211.551Z" fill="black"/>
<path d="M71.7393 251.088L69.1153 241.652C64.0911 240.36 59.2453 238.479 54.6833 236.05C54.6833 236.05 57.4122 240.909 65.258 243.575L69.312 255.69L69.6532 283.446L71.7393 251.088Z" fill="#407BFF"/>
<path opacity="0.3" d="M71.7393 251.088L69.1153 241.652C64.0911 240.36 59.2453 238.479 54.6833 236.05C54.6833 236.05 57.4122 240.909 65.258 243.575L69.312 255.69L69.6532 283.446L71.7393 251.088Z" fill="black"/>
<path d="M58.6186 211.551C56.4538 215.013 51.2845 220.91 52.3866 226.589C53.6986 233.461 57.5034 238.294 69.0752 241.653L79.9386 280.113C79.9386 280.113 74.2839 285.241 72.552 290.202C70.8202 295.163 64.5751 332.957 64.5751 332.957C64.5751 332.957 66.5168 336.046 72.6176 335.303C72.6176 335.303 93.8851 287.869 95.3808 284.779C97.1962 281.65 97.8322 277.999 97.1782 274.459C96.5091 269.485 89.3062 215.038 89.3062 215.038L58.6186 211.551Z" fill="#407BFF"/>
<path opacity="0.2" d="M58.6186 211.551C56.4538 215.013 51.2845 220.91 52.3866 226.589C53.6986 233.461 57.5034 238.294 69.0752 241.653L79.9386 280.113C79.9386 280.113 74.2839 285.241 72.552 290.202C70.8202 295.163 64.5751 332.957 64.5751 332.957C64.5751 332.957 66.5168 336.046 72.6176 335.303C72.6176 335.303 93.8851 287.869 95.3808 284.779C97.1962 281.65 97.8322 277.999 97.1782 274.459C96.5091 269.485 89.3062 215.038 89.3062 215.038L58.6186 211.551Z" fill="black"/>
<path d="M54.6307 182.296L81.6579 178.027C82.209 177.911 83.1011 177.694 84.2819 177.399C84.2819 177.399 85.4365 193.962 92.377 197.757C92.2064 198.552 92.0621 199.436 91.9309 200.449C91.5242 203.628 89.3069 214.987 89.3069 214.987C89.3069 214.987 78.8109 219.948 70.1911 217.551C61.5712 215.154 58.6586 211.577 58.6586 211.577L62.9751 204.705C61.768 201.846 56.3363 190.36 54.6307 182.296Z" fill="#407BFF"/>
<path opacity="0.7" d="M54.6307 182.296L81.6579 178.027C82.209 177.911 83.1011 177.694 84.2819 177.399C84.2819 177.399 85.4365 193.962 92.377 197.757C92.2064 198.552 92.0621 199.436 91.9309 200.449C91.5242 203.628 89.3069 214.987 89.3069 214.987C89.3069 214.987 78.8109 219.948 70.1911 217.551C61.5712 215.154 58.6586 211.577 58.6586 211.577L62.9751 204.705C61.768 201.846 56.3363 190.36 54.6307 182.296Z" fill="white"/>
<path d="M61.7547 201.975C65.344 204.081 69.1047 205.894 72.9985 207.397C69.4643 207.329 66.0043 206.394 62.9355 204.68L61.7547 201.975Z" fill="#407BFF"/>
<path d="M83.5213 144.656C83.5213 144.656 84.8333 152.989 81.737 157.887C81.737 157.887 80.5824 154.566 77.7091 155.194C74.8359 155.823 74.6784 159.528 76.6989 161.604C77.2125 162.187 77.8837 162.616 78.6356 162.843C79.3875 163.07 80.1895 163.085 80.9498 162.886C80.9498 162.886 81.409 168.912 81.6583 173.963C81.9075 179.014 83.272 190.026 77.4599 194.475C71.6477 198.923 57.0583 200.487 50.2228 191.154C46.418 185.962 51.4691 176.783 53.8176 166.489C55.9824 157.028 57.2026 143.003 67.4755 140.746C77.7485 138.49 83.5213 144.656 83.5213 144.656Z" fill="#37474F"/>
</svg>
