<svg width="648" height="323" viewBox="0 0 648 323" fill="none" xmlns="http://www.w3.org/2000/svg">
<g clip-path="url(#clip0_1_2766)">
<path d="M39.3044 6.67679C47.1732 -5.54678 96.7017 7.3354 94.7279 25.8289C92.7542 44.3222 58.5158 132.153 67.0425 142.058C75.5692 151.964 119.781 150.646 120.439 148.671C121.097 146.695 130.993 88.58 132.967 79.3333C134.94 70.0866 182.442 72.0624 185.074 89.2386C187.705 106.415 171.231 210.737 169.231 239.794C167.231 268.851 171.863 294.59 165.942 300.544C159.994 306.497 110.518 307.155 106.571 297.251C102.623 287.345 117.413 203.492 112.308 198.855C107.229 194.246 22.1196 203.466 4.9609 186.975C-12.1451 170.457 18.8562 38.3685 39.3044 6.67679Z" fill="#FFC224"/>
<path d="M487.745 6.65029C492.64 -3.80825 549.931 -2.70181 546.089 19.3744C542.247 41.4506 513.193 143.296 519.456 148.17C525.719 153.044 566.143 154.387 570.011 152.806C573.88 151.226 584.196 76.4353 586.064 64.3962C587.933 52.357 646.068 51.8828 647.014 66.3719C647.962 80.8612 625.619 307.972 619.75 318.299C613.881 328.599 559.695 318.905 556.458 309.869C553.221 300.833 572.169 206.258 567.406 203.94C562.642 201.622 472.139 212.818 458.375 194.509C444.612 176.2 478.454 26.4346 487.745 6.65029Z" fill="#FFC224"/>
<path d="M328.895 17.8992C380.951 21.0605 436.426 85.2606 426.532 175.726C416.636 266.19 363.213 315.717 291.289 311.766C219.364 307.814 197.627 216.664 204.864 145.351C212.102 74.0381 253.024 13.289 328.895 17.8992Z" fill="#FFC224"/>
<path d="M301.395 90.2922C324.054 98.2217 331.08 154.308 307.343 179.098C283.604 203.861 244.023 182.733 242.023 151.041C240.024 119.35 274.999 81.0455 301.395 90.2922Z" fill="white"/>
<path d="M373.293 121.958C375.53 122.775 377.608 124.145 379.425 125.725C388.53 133.654 391.372 147.433 387.767 158.971C386.241 163.844 383.582 168.534 379.503 171.616C374.503 175.384 367.871 176.437 361.661 175.752C357.108 175.252 352.449 173.803 349.318 170.457C347.081 168.086 345.817 164.951 345.002 161.817C341.055 146.536 349.791 118.585 370.214 121.22C371.292 121.352 372.318 121.616 373.293 121.958Z" fill="white"/>
<path d="M357.581 156.758C362.145 156.758 365.844 153.055 365.844 148.486C365.844 143.917 362.145 140.214 357.581 140.214C353.017 140.214 349.318 143.917 349.318 148.486C349.318 153.055 353.017 156.758 357.581 156.758Z" fill="#161439"/>
<path d="M295.711 136.736C300.273 136.736 303.974 133.033 303.974 128.465C303.974 123.896 300.273 120.193 295.711 120.193C291.147 120.193 287.446 123.896 287.446 128.465C287.446 133.033 291.147 136.736 295.711 136.736Z" fill="#161439"/>
<path d="M327.027 232.418C326.316 232.418 325.579 232.181 324.974 231.733C323.475 230.6 323.159 228.44 324.29 226.938C324.921 226.095 340.001 206.337 355.871 207.707C357.766 207.865 359.134 209.525 358.976 211.422C358.818 213.318 357.16 214.688 355.266 214.53C345.238 213.661 333.422 226.174 329.738 231.075C329.08 231.943 328.054 232.418 327.027 232.418Z" fill="#161439"/>
<path d="M363.371 113.975C355.37 113.975 348.765 111.868 348.265 111.71C346.475 111.131 345.502 109.181 346.081 107.39C346.66 105.598 348.607 104.624 350.397 105.203C350.607 105.256 370.476 111.578 380.24 100.988C381.53 99.5917 383.688 99.5127 385.083 100.804C386.477 102.095 386.556 104.254 385.266 105.651C379.161 112.21 370.687 113.975 363.371 113.975Z" fill="#161439"/>
<path d="M318.922 84.523C317.606 84.523 316.343 83.7591 315.79 82.4682C315.711 82.2838 307.79 64.5016 294.789 61.6038C288.5 60.2076 281.762 62.5785 274.788 68.7167C273.367 69.9548 271.21 69.8231 269.972 68.4005C268.735 66.978 268.867 64.8178 270.288 63.5797C279 55.9399 287.763 53.042 296.316 54.9652C312.712 58.6533 321.712 78.9118 322.08 79.7548C322.843 81.4935 322.054 83.4956 320.317 84.2597C319.844 84.4177 319.369 84.523 318.922 84.523Z" fill="#161439"/>
</g>
<defs>
<clipPath id="clip0_1_2766">
<rect width="648" height="323" fill="white"/>
</clipPath>
</defs>
</svg>
