<svg width="40" height="40" viewBox="0 0 40 40" fill="none" xmlns="http://www.w3.org/2000/svg">
<rect x="0.5" y="0.5" width="39" height="39" rx="19.5" stroke="#7F7E97"/>
<g clip-path="url(#clip0_1_2728)">
<path d="M19.7554 13.6113L18.7914 12.6205C16.5287 10.2946 12.3798 11.0972 10.8821 14.0214C10.1789 15.3968 10.0203 17.3825 11.3042 19.9168C12.5411 22.3569 15.1144 25.2797 19.7554 28.4634C24.3964 25.2797 26.9683 22.3569 28.2065 19.9168C29.4905 17.3812 29.3332 15.3968 28.6287 14.0214C27.131 11.0972 22.982 10.2933 20.7193 12.6191L19.7554 13.6113ZM19.7554 30.0834C-0.858929 16.4616 13.4083 5.82972 19.5188 11.4535C19.5994 11.5275 19.6787 11.6041 19.7554 11.6834C19.8312 11.6042 19.9102 11.5279 19.992 11.4549C26.1011 5.82703 40.3697 16.4602 19.7554 30.0834Z" fill="#7F7E97"/>
</g>
<defs>
<clipPath id="clip0_1_2728">
<rect width="22" height="22" fill="white" transform="translate(9 9)"/>
</clipPath>
</defs>
</svg>
