<svg width="194" height="59" viewBox="0 0 194 59" fill="none" xmlns="http://www.w3.org/2000/svg">
<g clip-path="url(#clip0_24_8)">
<path d="M187.068 7.39559C127.079 -1.49805 65.759 -2.6931 3.10874 3.81044C0.112778 4.17489 -1.95964 6.8362 -1.50803 9.74334C0.468348 23.338 1.74099 36.2603 2.30804 48.5103C2.3496 51.019 4.66769 53.2481 7.46879 53.4854C65.7627 59.4522 122.931 60.2884 178.974 55.9942C181.693 55.7823 184.206 53.4176 184.596 50.7224C186.641 37.9526 188.898 25.341 191.367 12.8877C191.88 10.2772 189.962 7.82784 187.079 7.39559" fill="#FFC224"/>
</g>
<path d="M59.5272 38.7979C58.1832 38.7979 56.9712 38.5699 55.8912 38.1139C54.8352 37.6339 53.9952 36.9259 53.3712 35.9899C52.7712 35.0299 52.4712 33.8419 52.4712 32.4259C52.4712 31.0099 52.9512 29.4379 53.9112 27.7099C54.8712 25.9579 56.4792 24.2059 58.7352 22.4539L58.3752 25.7659L55.1352 23.2459L58.5192 19.1059C60.3432 20.4979 61.9032 21.8539 63.1992 23.1739C64.5192 24.4699 65.5272 25.8019 66.2232 27.1699C66.9192 28.5379 67.2672 29.9899 67.2672 31.5259C67.2672 32.2699 67.1472 33.0739 66.9072 33.9379C66.6672 34.7779 66.2592 35.5699 65.6832 36.3139C65.1072 37.0339 64.3152 37.6339 63.3072 38.1139C62.3232 38.5699 61.0632 38.7979 59.5272 38.7979ZM59.9232 33.8299C60.5232 33.8299 61.0032 33.7099 61.3632 33.4699C61.7472 33.2299 62.0352 32.9179 62.2272 32.5339C62.4192 32.1499 62.5152 31.7419 62.5152 31.3099C62.5152 30.8779 62.4192 30.4099 62.2272 29.9059C62.0352 29.4019 61.6632 28.8379 61.1112 28.2139C60.5592 27.5899 59.7432 26.8699 58.6632 26.0539L61.3992 25.6939C60.4152 26.3659 59.6232 27.0499 59.0232 27.7459C58.4232 28.4419 57.9912 29.1139 57.7272 29.7619C57.4872 30.3859 57.3672 30.9619 57.3672 31.4899C57.3672 32.2579 57.6192 32.8459 58.1232 33.2539C58.6272 33.6379 59.2272 33.8299 59.9232 33.8299ZM69.7465 46.9699L68.7025 41.9299C70.4065 41.7139 71.8945 41.4499 73.1665 41.1379C74.4385 40.8499 75.5065 40.4419 76.3705 39.9139C77.2345 39.3859 77.8825 38.6659 78.3145 37.7539C78.7465 36.8179 78.9625 35.6179 78.9625 34.1539C78.9625 32.7379 78.7465 31.6099 78.3145 30.7699C77.8825 29.9299 77.3065 29.5099 76.5865 29.5099C76.0825 29.5099 75.6625 29.6899 75.3265 30.0499C74.9905 30.3859 74.7385 30.7939 74.5705 31.2739C74.4265 31.7299 74.3545 32.1379 74.3545 32.4979C74.3545 32.7139 74.4145 32.9419 74.5345 33.1819C74.6545 33.4219 74.9185 33.6259 75.3265 33.7939C75.7345 33.9619 76.3705 34.0579 77.2345 34.0819C78.1225 34.1059 79.3225 34.0219 80.8345 33.8299H86.8825C87.7945 33.8299 88.4425 34.0699 88.8265 34.5499C89.2345 35.0059 89.4385 35.5819 89.4385 36.2779C89.4385 37.0219 89.1865 37.6459 88.6825 38.1499C88.1785 38.6299 87.4585 38.8699 86.5225 38.8699H76.6225C75.1105 38.8699 73.8145 38.6899 72.7345 38.3299C71.6545 37.9699 70.8265 37.3939 70.2505 36.6019C69.6745 35.7859 69.3865 34.7059 69.3865 33.3619C69.3865 32.2819 69.5665 31.2019 69.9265 30.1219C70.3105 29.0419 70.8385 28.0579 71.5105 27.1699C72.1825 26.2579 72.9625 25.5379 73.8505 25.0099C74.7625 24.4579 75.7465 24.1819 76.8025 24.1819C78.2425 24.1819 79.5025 24.6259 80.5825 25.5139C81.6625 26.4019 82.5025 27.5779 83.1025 29.0419C83.7265 30.5059 84.0385 32.1019 84.0385 33.8299C84.0385 36.5419 83.4625 38.8459 82.3105 40.7419C81.1585 42.6379 79.5145 44.1019 77.3785 45.1339C75.2425 46.1899 72.6985 46.8019 69.7465 46.9699ZM85.8234 38.8699L86.1834 33.8659C87.1194 33.8899 87.9834 33.8779 88.7754 33.8299C89.5674 33.7819 90.2754 33.7099 90.8994 33.6139C91.5474 33.5179 92.1114 33.4099 92.5914 33.2899C93.0954 33.1699 93.5154 33.0619 93.8514 32.9659C94.6674 32.7019 95.3634 32.3899 95.9394 32.0299C96.5154 31.6459 96.9594 31.2139 97.2714 30.7339C97.5834 30.2539 97.7394 29.7379 97.7394 29.1859C97.7394 28.7539 97.6434 28.3219 97.4514 27.8899C97.2834 27.4339 97.0314 27.0619 96.6954 26.7739C96.3594 26.4859 95.9634 26.3419 95.5074 26.3419C95.0754 26.3419 94.6794 26.4739 94.3194 26.7379C93.9594 27.0019 93.6714 27.3619 93.4554 27.8179C93.2394 28.2499 93.1314 28.7539 93.1314 29.3299C93.1314 29.8339 93.2514 30.3139 93.4914 30.7699C93.7314 31.2019 94.0674 31.6219 94.4994 32.0299C94.9314 32.4379 95.4474 32.8219 96.0474 33.1819L91.2594 35.0179C90.7314 34.5139 90.2274 33.9739 89.7474 33.3979C89.2914 32.8219 88.9074 32.1739 88.5954 31.4539C88.3074 30.7099 88.1634 29.8819 88.1634 28.9699C88.1634 27.8659 88.3794 26.8579 88.8114 25.9459C89.2434 25.0339 89.8194 24.2539 90.5394 23.6059C91.2594 22.9339 92.0634 22.4179 92.9514 22.0579C93.8394 21.6979 94.7274 21.5179 95.6154 21.5179C97.0554 21.5179 98.3034 21.8539 99.3594 22.5259C100.415 23.1979 101.231 24.0739 101.807 25.1539C102.407 26.2339 102.707 27.4099 102.707 28.6819C102.707 29.8579 102.491 30.9139 102.059 31.8499C101.627 32.7619 101.039 33.5779 100.295 34.2979C99.5754 34.9939 98.7714 35.6059 97.8834 36.1339C97.0194 36.6619 96.1434 37.1059 95.2554 37.4659C94.8234 37.6579 94.2834 37.8379 93.6354 38.0059C92.9874 38.1739 92.2554 38.3299 91.4394 38.4739C90.6234 38.5939 89.7474 38.6899 88.8114 38.7619C87.8754 38.8339 86.8794 38.8699 85.8234 38.8699ZM104.831 38.8699C103.439 38.8699 102.071 38.7979 100.727 38.6539C99.3834 38.5099 98.1354 38.2939 96.9834 38.0059C95.8554 37.7179 94.8714 37.3699 94.0314 36.9619L96.5154 33.0739C97.2354 33.2659 98.0754 33.4219 99.0354 33.5419C100.019 33.6379 101.039 33.7099 102.095 33.7579C103.175 33.8059 104.207 33.8299 105.191 33.8299C106.103 33.8299 106.751 34.0699 107.135 34.5499C107.543 35.0059 107.747 35.5819 107.747 36.2779C107.747 37.0219 107.495 37.6459 106.991 38.1499C106.487 38.6299 105.767 38.8699 104.831 38.8699ZM98.7834 18.2419C98.0874 18.2419 97.4874 18.0019 96.9834 17.5219C96.5034 17.0179 96.2634 16.4299 96.2634 15.7579C96.2634 15.0619 96.5034 14.4619 96.9834 13.9579C97.4874 13.4539 98.0874 13.2019 98.7834 13.2019C99.4554 13.2019 100.031 13.4539 100.511 13.9579C100.991 14.4619 101.231 15.0619 101.231 15.7579C101.231 16.4299 100.991 17.0179 100.511 17.5219C100.031 18.0019 99.4554 18.2419 98.7834 18.2419ZM92.5554 18.2059C91.8594 18.2059 91.2594 17.9659 90.7554 17.4859C90.2754 16.9819 90.0354 16.3939 90.0354 15.7219C90.0354 15.0259 90.2754 14.4259 90.7554 13.9219C91.2594 13.4179 91.8594 13.1659 92.5554 13.1659C93.2274 13.1659 93.8034 13.4179 94.2834 13.9219C94.7634 14.4259 95.0034 15.0259 95.0034 15.7219C95.0034 16.3939 94.7634 16.9819 94.2834 17.4859C93.8034 17.9659 93.2274 18.2059 92.5554 18.2059ZM104.128 38.8699L104.488 33.8299C105.592 33.8299 106.384 33.7219 106.864 33.5059C107.344 33.2659 107.632 32.8339 107.728 32.2099C107.824 31.5619 107.848 30.6259 107.8 29.4019L107.152 12.3379H112.228L112.948 29.7619C112.996 31.1539 112.936 32.4139 112.768 33.5419C112.624 34.6459 112.252 35.5939 111.652 36.3859C111.076 37.1779 110.176 37.7899 108.952 38.2219C107.752 38.6539 106.144 38.8699 104.128 38.8699ZM125.478 38.8699C123.246 38.8699 121.518 38.6419 120.294 38.1859C119.094 37.7299 118.254 37.0219 117.774 36.0619C117.294 35.0779 117.018 33.8419 116.946 32.3539L116.19 12.3379H121.23L121.986 29.9419C122.034 31.0459 122.154 31.8739 122.346 32.4259C122.538 32.9779 122.898 33.3499 123.426 33.5419C123.978 33.7339 124.782 33.8299 125.838 33.8299C126.75 33.8299 127.398 34.0699 127.782 34.5499C128.19 35.0059 128.394 35.5819 128.394 36.2779C128.394 37.0219 128.142 37.6459 127.638 38.1499C127.134 38.6299 126.414 38.8699 125.478 38.8699ZM124.777 38.8699L125.137 33.8299C126.193 33.8299 127.021 33.7579 127.621 33.6139C128.245 33.4699 128.689 33.2059 128.953 32.8219C129.217 32.4139 129.349 31.8379 129.349 31.0939C129.349 30.4219 129.253 29.6179 129.061 28.6819C128.893 27.7459 128.665 26.7739 128.377 25.7659C128.089 24.7579 127.801 23.8339 127.513 22.9939L132.481 21.6259C132.769 22.4419 133.057 23.3899 133.345 24.4699C133.633 25.5499 133.873 26.6659 134.065 27.8179C134.281 28.9459 134.389 30.0379 134.389 31.0939C134.389 32.4139 134.221 33.5299 133.885 34.4419C133.549 35.3299 133.081 36.0739 132.481 36.6739C131.905 37.2499 131.209 37.7059 130.393 38.0419C129.601 38.3539 128.725 38.5699 127.765 38.6899C126.805 38.8099 125.809 38.8699 124.777 38.8699ZM129.205 47.1499C128.509 47.1499 127.909 46.9099 127.405 46.4299C126.925 45.9499 126.685 45.3619 126.685 44.6659C126.685 43.9699 126.925 43.3579 127.405 42.8299C127.909 42.3259 128.509 42.0739 129.205 42.0739C129.901 42.0739 130.489 42.3259 130.969 42.8299C131.473 43.3579 131.725 43.9699 131.725 44.6659C131.725 45.3619 131.473 45.9499 130.969 46.4299C130.489 46.9099 129.901 47.1499 129.205 47.1499Z" fill="white"/>
<defs>
<clipPath id="clip0_24_8">
<rect width="193.02" height="59" fill="white" transform="matrix(-1 0 0 1 193.02 0)"/>
</clipPath>
</defs>
</svg>
