<svg width="466" height="405" viewBox="0 0 466 405" fill="none" xmlns="http://www.w3.org/2000/svg">
<g clip-path="url(#clip0_1_7943)">
<path d="M206.966 97.7893H0.0883789V224.008H206.966V97.7893Z" fill="#F2F2F2"/>
<path d="M201.05 113.62H6.00391V216.541H201.05V113.62Z" fill="white"/>
<path d="M206.877 97.6775H0V106.05H206.877V97.6775Z" fill="#FFC224"/>
<path d="M6.53118 103.51C7.43082 103.51 8.16013 102.815 8.16013 101.958C8.16013 101.101 7.43082 100.406 6.53118 100.406C5.63153 100.406 4.90222 101.101 4.90222 101.958C4.90222 102.815 5.63153 103.51 6.53118 103.51Z" fill="white"/>
<path d="M12.7143 103.51C13.6139 103.51 14.3432 102.815 14.3432 101.958C14.3432 101.101 13.6139 100.406 12.7143 100.406C11.8146 100.406 11.0853 101.101 11.0853 101.958C11.0853 102.815 11.8146 103.51 12.7143 103.51Z" fill="white"/>
<path d="M18.8974 103.51C19.797 103.51 20.5263 102.815 20.5263 101.958C20.5263 101.101 19.797 100.406 18.8974 100.406C17.9977 100.406 17.2684 101.101 17.2684 101.958C17.2684 102.815 17.9977 103.51 18.8974 103.51Z" fill="white"/>
<path d="M73.8442 124.299H23.7266V205.862H73.8442V124.299Z" fill="#F2F2F2"/>
<path d="M124.26 124.299H82.4955V146.75H124.26V124.299Z" fill="#FFC224"/>
<path d="M124.26 153.002H82.4955V177.159H124.26V153.002Z" fill="#F2F2F2"/>
<path d="M124.26 183.411H82.4955V205.862H124.26V183.411Z" fill="#F2F2F2"/>
<path d="M183.328 124.299H133.21V159.844H183.328V124.299Z" fill="#F2F2F2"/>
<path d="M183.328 170.317H133.21V205.862H183.328V170.317Z" fill="#F2F2F2"/>
<path d="M466 97.7893H259.123V224.008H466V97.7893Z" fill="#F2F2F2"/>
<path d="M460.084 113.62H265.038V216.541H460.084V113.62Z" fill="white"/>
<path d="M465.912 97.6775H259.034V106.05H465.912V97.6775Z" fill="#FFC224"/>
<path d="M265.565 103.51C266.465 103.51 267.194 102.815 267.194 101.958C267.194 101.101 266.465 100.406 265.565 100.406C264.666 100.406 263.937 101.101 263.937 101.958C263.937 102.815 264.666 103.51 265.565 103.51Z" fill="white"/>
<path d="M271.749 103.51C272.648 103.51 273.378 102.815 273.378 101.958C273.378 101.101 272.648 100.406 271.749 100.406C270.849 100.406 270.12 101.101 270.12 101.958C270.12 102.815 270.849 103.51 271.749 103.51Z" fill="white"/>
<path d="M277.932 103.51C278.831 103.51 279.561 102.815 279.561 101.958C279.561 101.101 278.831 100.406 277.932 100.406C277.032 100.406 276.303 101.101 276.303 101.958C276.303 102.815 277.032 103.51 277.932 103.51Z" fill="white"/>
<path d="M442.316 124.299H392.199V205.862H442.316V124.299Z" fill="#F2F2F2"/>
<path d="M383.895 124.298H282.806V146.749H383.895V124.298Z" fill="#FFC224"/>
<path d="M383.895 153.001H282.806V177.157H383.895V153.001Z" fill="#F2F2F2"/>
<path d="M383.895 183.41H282.806V205.861H383.895V183.41Z" fill="#F2F2F2"/>
<path d="M347.468 97.6428H346.312V60.7379H116.188V97.6428H115.031V59.6362H347.468V97.6428Z" fill="#CCCCCC"/>
<path d="M239.759 168.258L238.888 164.11C238.888 164.11 226.081 159.963 224.648 168.258H239.759Z" fill="#E6E6E6"/>
<path d="M215.18 396.616L206.784 396.615L202.79 365.764L215.181 365.765L215.18 396.616Z" fill="#FFB8B8"/>
<path d="M217.321 404.369L190.249 404.368V404.041C190.249 401.379 191.359 398.826 193.335 396.944C195.311 395.061 197.991 394.004 200.786 394.003H200.787L217.321 394.004L217.321 404.369Z" fill="#2F2E41"/>
<path d="M244.044 396.616L252.44 396.615L256.435 365.764L244.043 365.765L244.044 396.616Z" fill="#FFB8B8"/>
<path d="M241.903 394.004L258.438 394.003H258.438C261.233 394.004 263.913 395.061 265.889 396.944C267.865 398.826 268.975 401.379 268.976 404.041V404.368L241.903 404.369L241.903 394.004Z" fill="#2F2E41"/>
<path d="M251.948 185.676L261.526 184.847L267.621 212.219L266.75 237.103L257.172 270.282L244.112 262.817L251.078 228.808L251.948 185.676Z" fill="#2F2E41"/>
<path d="M258.01 267.378L255.866 284.797L258.479 325.441V386.008L241.935 385.162L238.453 322.123L228.875 293.092L221.909 326.27L217.556 388.48L200.577 387.183V326.052L200.142 281.479L206.236 264.061L258.01 267.378Z" fill="#2F2E41"/>
<path d="M222.345 169.087C222.345 169.087 228.439 160.792 239.758 166.599L244.983 173.234L261.526 184.847L258.043 223.832L262.397 272.77L200.577 271.941L211.026 223.002V170.746L222.345 169.087Z" fill="#2F2E41"/>
<path opacity="0.25" d="M255.866 198.615L260.859 255.48L254.56 224.661L255.866 198.615Z" fill="black"/>
<path d="M210.455 283.345C211.057 282.659 211.495 281.856 211.736 280.991C211.978 280.127 212.017 279.223 211.852 278.342C211.687 277.462 211.321 276.627 210.781 275.895C210.24 275.164 209.538 274.555 208.724 274.11L210.585 260.243L202.015 257.11L199.675 276.728C198.982 278.081 198.833 279.63 199.258 281.08C199.683 282.53 200.651 283.782 201.98 284.597C203.309 285.413 204.905 285.736 206.467 285.505C208.029 285.274 209.448 284.505 210.455 283.345Z" fill="#FFB8B8"/>
<path d="M199.706 269.452H213.638V263.646H199.706V269.452Z" fill="#E6E6E6"/>
<path d="M220.168 177.796L211.025 170.746C211.025 170.746 204.495 170.331 203.625 179.455C202.754 188.579 201.695 227.564 201.695 227.564L198.4 266.549L216.685 267.378L220.168 225.184V177.796Z" fill="#2F2E41"/>
<path d="M247.376 150.839C252.008 142.767 248.894 132.647 240.421 128.235C231.948 123.822 221.324 126.789 216.692 134.86C212.061 142.932 215.175 153.053 223.648 157.465C232.121 161.877 242.744 158.911 247.376 150.839Z" fill="#FFB8B8"/>
<path d="M230.728 157.543C235.006 158.521 239.512 157.95 243.373 155.94C247.233 153.931 250.172 150.626 251.618 146.668C253.064 142.71 252.915 138.382 251.199 134.523C249.483 130.664 246.322 127.551 242.332 125.787C239.258 124.48 235.897 123.906 232.539 124.113C227.31 124.375 222.228 126.216 216.993 126.08L216.235 127.242L213.375 126.582L212.763 128.744L212.009 128.719C210.66 131.108 212.831 134.527 215.678 134.498C216.805 134.487 217.871 134.039 218.973 133.814C220.075 133.589 221.373 133.645 222.133 134.438C223.121 135.469 222.691 137.077 222.485 138.459C222.279 139.84 222.793 141.702 224.257 141.747C225.005 141.77 225.717 141.259 226.451 141.393C227.307 141.55 227.74 142.534 227.615 143.356C227.403 144.162 227.058 144.931 226.591 145.634C224.469 149.67 226.261 155.16 230.412 157.337" fill="#2F2E41"/>
<path d="M341.398 405H121.103C120.95 405 120.802 404.942 120.694 404.839C120.586 404.735 120.525 404.595 120.525 404.449C120.525 404.303 120.586 404.163 120.694 404.06C120.802 403.956 120.95 403.898 121.103 403.898H341.398C341.551 403.898 341.698 403.956 341.806 404.06C341.915 404.163 341.976 404.303 341.976 404.449C341.976 404.595 341.915 404.735 341.806 404.839C341.698 404.942 341.551 405 341.398 405Z" fill="#CCCCCC"/>
</g>
<defs>
<clipPath id="clip0_1_7943">
<rect width="466" height="405" fill="white"/>
</clipPath>
</defs>
</svg>
