<svg width="40" height="40" viewBox="0 0 40 40" fill="none" xmlns="http://www.w3.org/2000/svg">
<rect x="0.5" y="0.5" width="39" height="39" rx="19.5" stroke="#7F7E97"/>
<g clip-path="url(#clip0_1_2731)">
<path d="M29.4853 17.2598C29.2241 16.9321 28.8323 16.7442 28.4102 16.7442H24.6011L22.5355 12.0145C22.4075 11.7212 22.0659 11.5872 21.7726 11.7154C21.4793 11.8434 21.3454 12.185 21.4735 12.4783L23.3365 16.7442H16.4425L18.3055 12.4783C18.4335 12.185 18.2996 11.8435 18.0063 11.7154C17.7131 11.5872 17.3715 11.7212 17.2434 12.0145L15.1779 16.7442H11.3687C10.9466 16.7442 10.5548 16.9321 10.2936 17.2598C10.0372 17.5816 9.94264 17.9951 10.0341 18.3946L12.0682 27.2797C12.2103 27.9001 12.7591 28.3334 13.4029 28.3334H26.376C27.0198 28.3334 27.5686 27.9001 27.7107 27.2797L29.7449 18.3946C29.8363 17.9951 29.7417 17.5815 29.4853 17.2598ZM26.376 27.1745H13.4029C13.3045 27.1745 13.2183 27.1099 13.198 27.021L11.1638 18.136C11.1478 18.0663 11.1746 18.0138 11.1999 17.9821C11.2234 17.9526 11.2766 17.9031 11.3687 17.9031H14.6718L14.52 18.2507C14.3919 18.544 14.5258 18.8855 14.8191 19.0136C14.8946 19.0466 14.9733 19.0622 15.0507 19.0622C15.2741 19.0622 15.4869 18.9323 15.582 18.7146L15.9364 17.9032H23.8426L24.197 18.7146C24.2921 18.9324 24.505 19.0622 24.7283 19.0622C24.8057 19.0622 24.8844 19.0466 24.9599 19.0136C25.2532 18.8856 25.3871 18.544 25.259 18.2507L25.1073 17.9031H28.4103C28.5024 17.9031 28.5556 17.9526 28.5791 17.9821C28.6044 18.0139 28.6312 18.0663 28.6152 18.136L26.5811 27.0211C26.5607 27.1099 26.4744 27.1745 26.376 27.1745Z" fill="#7F7E97"/>
<path d="M16.4135 20.4141C16.0934 20.4141 15.834 20.6735 15.834 20.9935V25.2429C15.834 25.5629 16.0934 25.8224 16.4135 25.8224C16.7335 25.8224 16.9929 25.5629 16.9929 25.2429V20.9935C16.9929 20.6735 16.7335 20.4141 16.4135 20.4141Z" fill="#7F7E97"/>
<path d="M19.89 20.4141C19.57 20.4141 19.3105 20.6735 19.3105 20.9935V25.2429C19.3105 25.5629 19.57 25.8224 19.89 25.8224C20.21 25.8224 20.4694 25.5629 20.4694 25.2429V20.9935C20.4694 20.6735 20.21 20.4141 19.89 20.4141Z" fill="#7F7E97"/>
<path d="M23.3665 20.4141C23.0465 20.4141 22.7871 20.6735 22.7871 20.9935V25.2429C22.7871 25.5629 23.0465 25.8224 23.3665 25.8224C23.6866 25.8224 23.946 25.5629 23.946 25.2429V20.9935C23.946 20.6735 23.6866 20.4141 23.3665 20.4141Z" fill="#7F7E97"/>
</g>
<defs>
<clipPath id="clip0_1_2731">
<rect width="20" height="18" fill="white" transform="translate(10 11)"/>
</clipPath>
</defs>
</svg>
