<svg width="208" height="117" viewBox="0 0 208 117" fill="none" xmlns="http://www.w3.org/2000/svg">
<g filter="url(#filter0_d_1_7800)">
<path d="M71.4 97.7999C69.5333 99.2666 66.8 100.467 63.2 101.4C59.6 102.333 55.5333 102.8 51 102.8C45.8 102.8 41.2667 102.133 37.4 100.8C33.6667 99.4666 31.0667 97.3332 29.6 94.3999C28.4 92.1332 26.9333 88.9999 25.2 84.9999C23.6 80.8666 21.8667 76.3332 20 71.3999C18.1333 66.3332 16.2 60.9332 14.2 55.1999C12.2 49.4666 10.2667 43.7999 8.4 38.1999C6.66667 32.5999 5.06667 27.1999 3.6 21.9999C2.13333 16.7999 0.933334 12.1999 2.83122e-07 8.1999C1.86667 6.33323 4.33333 4.73323 7.4 3.3999C10.6 1.93323 14.0667 1.1999 17.8 1.1999C22.4667 1.1999 26.2667 2.1999 29.2 4.1999C32.2667 6.06657 34.5333 9.66657 36 14.9999L43.8 45.5999C45.2667 51.5999 46.6667 57.0666 48 61.9999C49.3333 66.7999 50.3333 70.5332 51 73.1999H52C54.5333 63.3332 57.2 52.3999 60 40.3999C62.8 28.3999 65.3333 16.5999 67.6 4.9999C69.8667 3.7999 72.4 2.86656 75.2 2.1999C78.1333 1.53323 80.9333 1.1999 83.6 1.1999C88.2667 1.1999 92.2 2.1999 95.4 4.1999C98.6 6.1999 100.2 9.66656 100.2 14.5999C100.2 16.7332 99.6667 19.8666 98.6 23.9999C97.6667 27.9999 96.4 32.5999 94.8 37.7999C93.3333 42.8666 91.5333 48.2666 89.4 53.9999C87.4 59.7332 85.3333 65.3332 83.2 70.7999C81.0667 76.2666 78.9333 81.3999 76.8 86.1999C74.8 90.8666 73 94.7332 71.4 97.7999ZM197.384 71.3999C197.384 81.5332 193.584 89.4666 185.984 95.1999C178.384 100.933 167.184 103.8 152.384 103.8C146.784 103.8 141.584 103.4 136.784 102.6C131.984 101.8 127.851 100.6 124.384 98.9999C121.051 97.2666 118.384 95.1332 116.384 92.5999C114.518 90.0666 113.584 87.0666 113.584 83.5999C113.584 80.3999 114.251 77.7332 115.584 75.5999C116.918 73.3332 118.518 71.4666 120.384 69.9999C124.251 72.1332 128.651 74.0666 133.584 75.7999C138.651 77.3999 144.451 78.1999 150.984 78.1999C155.118 78.1999 158.251 77.5999 160.384 76.3999C162.651 75.1999 163.784 73.5999 163.784 71.5999C163.784 69.7332 162.984 68.2666 161.384 67.1999C159.784 66.1332 157.118 65.2666 153.384 64.5999L147.384 63.3999C135.784 61.1332 127.118 57.5999 121.384 52.7999C115.784 47.8666 112.984 40.8666 112.984 31.7999C112.984 26.8666 114.051 22.3999 116.184 18.3999C118.318 14.3999 121.318 11.0666 125.184 8.3999C129.051 5.73323 133.651 3.66656 138.984 2.1999C144.451 0.733229 150.451 -0.000104427 156.984 -0.000104427C161.918 -0.000104427 166.518 0.399896 170.784 1.1999C175.184 1.86656 178.984 2.93323 182.184 4.3999C185.384 5.86657 187.918 7.7999 189.784 10.1999C191.651 12.4666 192.584 15.1999 192.584 18.3999C192.584 21.4666 191.984 24.1332 190.784 26.3999C189.718 28.5332 188.318 30.3332 186.584 31.7999C185.518 31.1332 183.918 30.4666 181.784 29.7999C179.651 28.9999 177.318 28.3332 174.784 27.7999C172.251 27.1332 169.651 26.5999 166.984 26.1999C164.451 25.7999 162.118 25.5999 159.984 25.5999C155.584 25.5999 152.184 26.1332 149.784 27.1999C147.384 28.1332 146.184 29.6666 146.184 31.7999C146.184 33.2666 146.851 34.4666 148.184 35.3999C149.518 36.3332 152.051 37.1999 155.784 37.9999L161.984 39.3999C174.784 42.3332 183.851 46.3999 189.184 51.5999C194.651 56.6666 197.384 63.2666 197.384 71.3999Z" fill="#FFC224"/>
</g>
<defs>
<filter id="filter0_d_1_7800" x="0" y="0" width="207.384" height="116.8" filterUnits="userSpaceOnUse" color-interpolation-filters="sRGB">
<feFlood flood-opacity="0" result="BackgroundImageFix"/>
<feColorMatrix in="SourceAlpha" type="matrix" values="0 0 0 0 0 0 0 0 0 0 0 0 0 0 0 0 0 0 127 0" result="hardAlpha"/>
<feOffset dx="6" dy="9"/>
<feGaussianBlur stdDeviation="2"/>
<feComposite in2="hardAlpha" operator="out"/>
<feColorMatrix type="matrix" values="0 0 0 0 0 0 0 0 0 0 0 0 0 0 0 0 0 0 1 0"/>
<feBlend mode="normal" in2="BackgroundImageFix" result="effect1_dropShadow_1_7800"/>
<feBlend mode="normal" in="SourceGraphic" in2="effect1_dropShadow_1_7800" result="shape"/>
</filter>
</defs>
</svg>
