<svg width="30" height="30" viewBox="0 0 30 30" fill="none" xmlns="http://www.w3.org/2000/svg">
<path d="M3.8147e-06 13.7496C-0.0011425 12.3141 0.300442 10.9004 0.878241 9.63298C1.45604 8.3656 2.29222 7.28352 3.31298 6.48215C4.33391 5.68079 5.508 5.18473 6.73199 5.03773C7.95599 4.89075 9.1921 5.09733 10.3315 5.63927C11.4709 6.18121 12.4786 7.04187 13.2655 8.14534C14.0524 9.24882 14.5945 10.5612 14.8441 11.9669C15.0937 13.3725 15.043 14.8282 14.6965 16.2056C14.3499 17.583 13.7183 18.8396 12.8572 19.865V28.7491C12.8572 28.9623 12.8108 29.1719 12.7217 29.3581C12.6329 29.5443 12.5046 29.7009 12.3491 29.8131C12.1938 29.9251 12.0163 29.9891 11.8338 29.9987C11.6512 30.0083 11.4698 29.9631 11.3063 29.8677L7.5001 27.6459L3.69376 29.8677C3.53045 29.9631 3.34882 30.0083 3.1662 29.9987C2.98375 29.9891 2.8062 29.9251 2.65091 29.8131C2.49545 29.7009 2.36716 29.5443 2.27831 29.3581C2.18929 29.1719 2.14282 28.9623 2.14282 28.7491V19.865C0.768764 18.2334 -0.000814438 16.037 3.8147e-06 13.7496ZM7.5001 7.49976C6.44056 7.49976 5.40474 7.8663 4.52372 8.55304C3.64287 9.23978 2.95609 10.2159 2.55076 11.3579C2.14527 12.4999 2.03907 13.7565 2.24591 14.9688C2.45258 16.1812 2.9628 17.2948 3.71193 18.1688C4.46122 19.043 5.4157 19.6382 6.45496 19.8794C7.49405 20.1204 8.57126 19.9966 9.55014 19.5236C10.529 19.0506 11.3657 18.2496 11.9543 17.2218C12.543 16.194 12.8572 14.9856 12.8572 13.7496C12.8572 12.092 12.2927 10.5024 11.2881 9.33028C10.2834 8.15822 8.92079 7.49976 7.5001 7.49976ZM7.02065 25.1303C7.1694 25.0435 7.33352 24.9983 7.5001 24.9983C7.66652 24.9983 7.83065 25.0435 7.97956 25.1303L10.7142 26.7273V21.654C9.71001 22.2106 8.61201 22.4994 7.5001 22.4994C6.3882 22.4994 5.2902 22.2106 4.2858 21.654V26.7273L7.02065 25.1303ZM15 23.7492C15 24.0808 15.1129 24.3987 15.3138 24.6331C15.5148 24.8675 15.7873 24.9991 16.0714 24.9991H27.8571C28.4255 24.9991 28.9705 24.7357 29.3724 24.2669C29.7742 23.7982 30 23.1624 30 22.4994V2.49991C30 1.8369 29.7742 1.20104 29.3724 0.732219C28.9705 0.26338 28.4255 0 27.8571 0H4.2858C3.71749 0 3.17242 0.26338 2.77053 0.732219C2.36864 1.20104 2.14282 1.8369 2.14282 2.49991C2.14282 2.83143 2.25573 3.14935 2.45667 3.38377C2.65762 3.61819 2.93023 3.74987 3.21431 3.74987C3.49854 3.74987 3.771 3.61819 3.97194 3.38377C4.17289 3.14935 4.2858 2.83143 4.2858 2.49991H27.8571V22.4994H16.0714C15.7873 22.4994 15.5148 22.631 15.3138 22.8654C15.1129 23.0998 15 23.4178 15 23.7492ZM17.1429 14.9995C17.1429 15.331 17.2558 15.649 17.4567 15.8834C17.6576 16.1178 17.9301 16.2496 18.2143 16.2496H23.5714C23.8556 16.2496 24.1281 16.1178 24.329 15.8834C24.53 15.649 24.6429 15.331 24.6429 14.9995C24.6429 14.668 24.53 14.3501 24.329 14.1157C24.1281 13.8813 23.8556 13.7496 23.5714 13.7496H18.2143C17.9301 13.7496 17.6576 13.8813 17.4567 14.1157C17.2558 14.3501 17.1429 14.668 17.1429 14.9995ZM17.1429 9.99968C17.1429 10.3312 17.2558 10.6491 17.4567 10.8835C17.6576 11.118 17.9301 11.2496 18.2143 11.2496H23.5714C23.8556 11.2496 24.1281 11.118 24.329 10.8835C24.53 10.6491 24.6429 10.3312 24.6429 9.99968C24.6429 9.66818 24.53 9.35024 24.329 9.11582C24.1281 8.88142 23.8556 8.74972 23.5714 8.74972H18.2143C17.9301 8.74972 17.6576 8.88142 17.4567 9.11582C17.2558 9.35024 17.1429 9.66818 17.1429 9.99968Z" fill="white"/>
</svg>
