<svg width="27" height="32" viewBox="0 0 27 32" fill="none" xmlns="http://www.w3.org/2000/svg">
<g clip-path="url(#clip0_1_4206)">
<path d="M21.9884 24.5H5.0116C2.2481 24.5 0 22.2571 0 19.5V5C0 2.24292 2.2481 0 5.0116 0H21.9884C24.7519 0 27 2.24292 27 5V27C27 29.7571 24.7519 32 21.9884 32H5.0116C2.2481 32 0 29.7571 0 27C0 26.3096 0.5609 25.75 1.2529 25.75C1.9449 25.75 2.5058 26.3096 2.5058 27C2.5058 28.3784 3.63 29.5 5.0116 29.5H21.9884C23.37 29.5 24.4942 28.3784 24.4942 27C24.4942 25.6216 23.37 24.5 21.9884 24.5ZM24.4942 5C24.4942 3.62158 23.37 2.5 21.9884 2.5H5.0116C3.63 2.5 2.5058 3.62158 2.5058 5V19.5C2.5058 20.8784 3.63 22 5.0116 22H21.9884C22.9007 22 23.7566 22.2444 24.4942 22.6709V5ZM19.42 8.4375C19.42 7.74707 18.8591 7.1875 18.1671 7.1875H8.7703C8.0783 7.1875 7.5174 7.74707 7.5174 8.4375C7.5174 9.12793 8.0783 9.6875 8.7703 9.6875H18.1671C18.8591 9.6875 19.42 9.12793 19.42 8.4375Z" fill="white"/>
</g>
<defs>
<clipPath id="clip0_1_4206">
<rect width="27" height="32" fill="white" transform="matrix(-1 0 0 1 27 0)"/>
</clipPath>
</defs>
</svg>
