<svg width="32" height="26" viewBox="0 0 32 26" fill="none" xmlns="http://www.w3.org/2000/svg">
<g clip-path="url(#clip0_1_4196)">
<path d="M2.3034 5.50114C2.3034 5.50114 13.5942 0.499395 13.5972 0.498095C14.3597 0.16757 15.1681 0 16 0C16.8319 0 17.6403 0.16757 18.4028 0.498095C18.4058 0.499395 29.6966 5.50114 29.6966 5.50114C31.096 6.11 32 7.52206 32 9.1C32 10.6779 31.096 12.09 29.6966 12.6989L27 13.8934V22.1C27 24.2505 25.3177 26 23.25 26H8.75C6.6823 26 5 24.2505 5 22.1V18.6335C5 17.9155 5.5596 17.3335 6.25 17.3335C6.9404 17.3335 7.5 17.9155 7.5 18.6335V22.1C7.5 22.8168 8.0607 23.4 8.75 23.4H23.25C23.9392 23.4 24.5 22.8168 24.5 22.1V15.001C24.5 15.001 18.4058 17.7007 18.4028 17.702C17.6403 18.0324 16.8319 18.2 16 18.2C15.1682 18.2 14.3598 18.0324 13.5972 17.702C13.5942 17.7007 2.3034 12.6989 2.3034 12.6989C0.903999 12.09 0 10.6779 0 9.1C0 7.52206 0.903999 6.11 2.3034 5.50114ZM3.2699 10.301C3.2729 10.3023 14.5627 15.3036 14.5627 15.3036C15.0179 15.5003 15.5014 15.6 16.0001 15.6C16.4987 15.6 16.9822 15.5003 17.4373 15.3037C18.5586 14.8069 28.7272 10.3023 28.7302 10.301C29.1978 10.0983 29.5 9.62689 29.5 9.1C29.5 8.57311 29.1978 8.10173 28.7301 7.89899C28.7271 7.89769 17.4373 2.89633 17.4373 2.89633C16.9822 2.69971 16.4986 2.6 16 2.6C15.5014 2.6 15.0178 2.69971 14.5627 2.89633C14.5627 2.89633 3.2729 7.89769 3.2699 7.89899C2.8022 8.10173 2.5 8.57311 2.5 9.1C2.5 9.62689 2.8022 10.0983 3.2699 10.301Z" fill="white"/>
<path d="M1.25 15.1609C1.9404 15.1609 2.5 15.7429 2.5 16.4609V22.0999C2.5 22.8179 1.9404 23.3999 1.25 23.3999C0.5596 23.3999 0 22.8179 0 22.0999V16.4609C0 15.7429 0.5596 15.1609 1.25 15.1609Z" fill="white"/>
</g>
<defs>
<clipPath id="clip0_1_4196">
<rect width="32" height="26" fill="white" transform="matrix(-1 0 0 1 32 0)"/>
</clipPath>
</defs>
</svg>
