<svg width="48" height="42" viewBox="0 0 48 42" fill="none" xmlns="http://www.w3.org/2000/svg">
<path d="M43.5 0C45.9375 0 48 2.0625 48 4.5V27C48 35.3438 41.25 42 33 42H32.25C30.9375 42 30 41.0625 30 39.75V35.25C30 34.0312 30.9375 33 32.25 33H33C36.2812 33 39 30.375 39 27V21H31.5C28.9688 21 27 19.0312 27 16.5V4.5C27 2.0625 28.9688 0 31.5 0H43.5ZM16.5 0C18.9375 0 21 2.0625 21 4.5V27C21 35.3438 14.25 42 6 42H5.25C3.9375 42 3 41.0625 3 39.75V35.25C3 34.0312 3.9375 33 5.25 33H6C9.28125 33 12 30.375 12 27V21H4.5C1.96875 21 0 19.0312 0 16.5V4.5C0 2.0625 1.96875 0 4.5 0H16.5Z" fill="#D9D6F5"/>
</svg>
