<svg width="34" height="35" viewBox="0 0 34 35" fill="none" xmlns="http://www.w3.org/2000/svg">
<path d="M16.9956 1C11.9299 1 8.64523 4.33133 4.76065 5.54558C3.18117 6.03931 2.39141 6.28617 2.07179 6.63417C1.75218 6.98217 1.65859 7.49069 1.47141 8.50771C-0.531606 19.3909 3.84644 29.4526 14.2875 33.3689C15.4094 33.7896 15.9702 34 17.0011 34C18.0319 34 18.5929 33.7896 19.7146 33.3689C30.155 29.4524 34.5289 19.3909 32.5253 8.50771C32.338 7.49051 32.2444 6.98191 31.9247 6.63391C31.6051 6.28591 30.8153 6.03918 29.2359 5.54573C25.3498 4.3316 22.0615 1 16.9956 1Z" stroke="white" stroke-width="2" stroke-linecap="round" stroke-linejoin="round"/>
<path d="M14.1474 15C12.2963 15 11.3708 16.2479 11.1651 17.0159C10.9594 17.7838 10.9594 20.5677 11.0828 21.7196C11.4942 23.1596 12.5226 23.7547 13.5304 23.9467C14.4559 24.0235 18.3638 23.9947 19.495 23.9947C21.1404 24.0235 22.3745 23.4475 22.8887 21.7196C22.9915 21.1437 23.0943 17.9758 22.8373 17.0159C22.2922 15.48 20.9347 15 19.9063 15H14.1474Z" stroke="white" stroke-width="2" stroke-linecap="round"/>
<path d="M12.9986 15C12.9986 14.8783 13.0173 14.1778 13.0205 13.2965C13.0234 12.4911 12.944 11.7146 13.3754 11.004C14.9918 8.13716 19.6334 8.4292 20.7802 11.3496C20.9788 11.8304 20.9909 12.5926 20.985 13.2965C20.9775 14.1959 20.9986 15 20.9986 15" stroke="white" stroke-width="2" stroke-linecap="round"/>
</svg>
