<svg width="49" height="37" viewBox="0 0 49 37" fill="none" xmlns="http://www.w3.org/2000/svg">
<path d="M32.3502 31.7636C32.6006 31.7771 32.8486 31.7059 33.0569 31.5609C33.2652 31.4159 33.4223 31.2049 33.5045 30.9598L34.9351 26.6954C35.5512 24.8398 36.6172 23.1767 38.0312 21.8653C39.4451 20.5538 41.1598 19.6376 43.0112 19.2045L47.2675 18.1941C47.5119 18.1359 47.7316 17.9971 47.8934 17.7987C48.0552 17.6003 48.1503 17.3532 48.1642 17.0946C48.1782 16.836 48.1103 16.58 47.9708 16.3654C47.8313 16.1508 47.6278 15.9891 47.3911 15.9049L43.2684 14.4421C41.4744 13.812 39.8684 12.7166 38.6039 11.2605C37.3394 9.80435 36.4587 8.03618 36.0459 6.12497L35.0829 1.7313C35.0274 1.47898 34.8939 1.25249 34.7024 1.08604C34.511 0.919604 34.2721 0.822268 34.0218 0.808754C33.7716 0.79524 33.5236 0.866282 33.3153 1.01114C33.1071 1.15599 32.9499 1.36679 32.8676 1.61166L31.437 5.87608C30.8208 7.73172 29.7548 9.39476 28.3409 10.7062C26.9269 12.0177 25.2123 12.9338 23.3609 13.367L19.1046 14.3774C18.8602 14.4356 18.6405 14.5744 18.4787 14.7728C18.3169 14.9711 18.2218 15.2183 18.2079 15.4769C18.1939 15.7355 18.2618 15.9914 18.4013 16.2061C18.5407 16.4207 18.7442 16.5823 18.981 16.6665L23.1037 18.1294C24.8977 18.7595 26.5037 19.8549 27.7682 21.311C29.0327 22.7672 29.9134 24.5353 30.3261 26.4465L31.2892 30.8402C31.3445 31.0927 31.478 31.3194 31.6694 31.486C31.8609 31.6526 32.0998 31.75 32.3502 31.7636ZM42.8187 16.8059L42.5065 16.8814C40.2721 17.4043 38.2028 18.51 36.4964 20.0928C34.79 21.6756 33.5034 23.6826 32.7596 25.922L32.6534 26.2347L32.5814 25.9124C32.0832 23.6059 31.0202 21.472 29.4942 19.7146C27.9681 17.9573 26.03 16.6352 23.8649 15.8747L23.5626 15.7661L23.8748 15.6906C26.1092 15.1677 28.1785 14.062 29.8849 12.4792C31.5913 10.8964 32.8779 8.88945 33.6216 6.65L33.7235 6.33389L33.7954 6.6562C34.2937 8.96272 35.3566 11.0966 36.8827 12.8539C38.4087 14.6113 40.3469 15.9333 42.512 16.6938L42.8187 16.8059Z" fill="#27272F" fill-opacity="0.2"/>
<path d="M8.54486 36.0381C8.68696 36.0458 8.82786 36.0054 8.94616 35.923C9.06446 35.8407 9.15366 35.7208 9.20036 35.5817L10.0128 33.16C10.3627 32.1062 10.968 31.1618 11.771 30.417C12.5739 29.6722 13.5477 29.152 14.5991 28.906L17.0161 28.3322C17.1549 28.2992 17.2797 28.2203 17.3716 28.1077C17.4635 27.995 17.5174 27.8547 17.5254 27.7078C17.5333 27.561 17.4947 27.4156 17.4155 27.2937C17.3363 27.1719 17.2208 27.0801 17.0863 27.0323L14.7451 26.2015C13.7263 25.8437 12.8143 25.2216 12.0962 24.3947C11.3781 23.5678 10.878 22.5637 10.6436 21.4784L10.0967 18.9833C10.0652 18.84 9.98936 18.7114 9.88056 18.6168C9.77186 18.5223 9.63626 18.467 9.49406 18.4594C9.35196 18.4517 9.21116 18.492 9.09286 18.5743C8.97466 18.6566 8.88536 18.7763 8.83866 18.9153L8.02626 21.337C7.67626 22.3908 7.07096 23.3352 6.26796 24.08C5.46506 24.8248 4.49136 25.345 3.43996 25.591L1.02286 26.1648C0.884056 26.1979 0.759256 26.2767 0.667356 26.3893C0.575556 26.502 0.521555 26.6423 0.513655 26.7892C0.505655 26.936 0.544256 27.0814 0.623457 27.2033C0.702658 27.3251 0.818258 27.4169 0.952658 27.4648L3.29386 28.2955C4.31266 28.6533 5.22466 29.2754 5.94276 30.1023C6.66086 30.9292 7.16096 31.9333 7.39536 33.0187L7.94226 35.5137C7.97366 35.6571 8.04946 35.7858 8.15826 35.8805C8.26696 35.9751 8.40266 36.0304 8.54486 36.0381ZM14.4897 27.5439L14.3124 27.5868C13.0436 27.8837 11.8685 28.5116 10.8994 29.4104C9.93036 30.3093 9.19966 31.449 8.77736 32.7208L8.71696 32.8983L8.67616 32.7153C8.39316 31.4055 7.78956 30.1937 6.92296 29.1957C6.05626 28.1977 4.95566 27.447 3.72616 27.0151L3.55446 26.9534L3.73176 26.9105C5.00066 26.6136 6.17576 25.9857 7.14486 25.0868C8.11386 24.188 8.84446 23.0483 9.26686 21.7765L9.32466 21.597L9.36556 21.78C9.64846 23.0899 10.2522 24.3017 11.1188 25.2996C11.9854 26.2976 13.086 27.0484 14.3155 27.4803L14.4897 27.5439Z" fill="#27272F" fill-opacity="0.2"/>
</svg>
