<svg width="30" height="30" viewBox="0 0 30 30" fill="none" xmlns="http://www.w3.org/2000/svg">
<g clip-path="url(#clip0_1_2909)">
<mask id="mask0_1_2909" style="mask-type:luminance" maskUnits="userSpaceOnUse" x="0" y="0" width="30" height="30">
<path d="M0 0H30V30H0V0Z" fill="white"/>
</mask>
<g mask="url(#mask0_1_2909)">
<path d="M6.2779 18.584C6.8929 17.9445 7.6348 17.6026 8.4211 17.6026C9.201 17.6026 9.9493 17.9382 10.5897 18.5777L12.5934 20.5722C12.7583 20.4835 12.9232 20.4012 13.0817 20.3189C13.31 20.2049 13.5255 20.0973 13.7094 19.9833C15.5863 18.793 17.2921 17.2417 18.928 15.2346C19.7206 14.2341 20.2533 13.392 20.6401 12.5373C20.1201 12.0624 19.6382 11.5685 19.169 11.0936C18.9914 10.9163 18.8139 10.7327 18.6363 10.5554C17.3047 9.22576 17.3047 7.50354 18.6363 6.17388L20.3674 4.44532C20.564 4.24904 20.7669 4.04642 20.9571 3.84381C21.3376 3.45124 21.7371 3.04601 22.1492 2.66611C22.7643 2.05827 23.4998 1.73535 24.2734 1.73535C25.047 1.73535 25.7952 2.05827 26.4293 2.66611C26.4357 2.67244 26.4357 2.67244 26.442 2.67877L28.5979 4.85055C29.4096 5.66101 29.8725 6.64876 29.9739 7.79479C30.1261 9.64365 29.5808 11.3659 29.1623 12.4929C28.135 15.2599 26.6005 17.8242 24.3115 20.5722C21.5341 23.8837 18.1925 26.4987 14.3752 28.3412C12.9168 29.0313 10.9702 29.8481 8.7952 29.9874C8.6621 29.9938 8.5226 30.0001 8.3957 30.0001C6.931 30.0001 5.7008 29.4746 4.737 28.4298C4.7307 28.4172 4.718 28.4108 4.7117 28.3982C4.3819 27.9993 4.0015 27.6384 3.602 27.2521C3.3293 26.9925 3.0503 26.7203 2.7777 26.4353C2.1499 25.7832 1.8202 25.0234 1.8202 24.2446C1.8202 23.4594 2.1563 22.706 2.7967 22.0728L6.2779 18.584ZM4.0078 25.2513C4.0142 25.2513 4.0142 25.2577 4.0078 25.2513C4.2551 25.5173 4.5088 25.7579 4.7814 26.0238C5.1936 26.4164 5.6121 26.8279 6.0052 27.2901C6.6456 27.974 7.4002 28.2969 8.3894 28.2969C8.4845 28.2969 8.586 28.2969 8.6811 28.2905C10.5643 28.1702 12.3144 27.4358 13.627 26.8089C17.216 25.074 20.3674 22.611 22.9862 19.4895C25.1485 16.8871 26.5942 14.4811 27.5517 11.8977C28.1414 10.3212 28.357 9.09279 28.2619 7.93409C28.1985 7.19328 27.9131 6.57911 27.3868 6.05357L25.2245 3.89446C24.9138 3.6032 24.5841 3.44491 24.2607 3.44491C23.8613 3.44491 23.5379 3.68552 23.335 3.88813C23.3286 3.89446 23.3223 3.90079 23.3159 3.90713C22.9291 4.26803 22.5614 4.6416 22.1746 5.0405C21.978 5.24312 21.7751 5.44573 21.5722 5.65468L19.8411 7.38323C19.169 8.05439 19.169 8.6749 19.8411 9.34606C20.025 9.52968 20.2025 9.7133 20.3864 9.89059C20.9191 10.4351 21.4263 10.9417 21.978 11.4355C21.9907 11.4482 22.0034 11.4545 22.0097 11.4672C22.555 12.0117 22.4536 12.5436 22.3394 12.9045C22.3331 12.9235 22.3267 12.9425 22.3204 12.9615C21.8702 14.0505 21.2361 15.0763 20.2723 16.2983L20.266 16.3046C18.5159 18.4574 16.6706 20.1353 14.6352 21.4206C14.3752 21.5853 14.1089 21.7182 13.8553 21.8449C13.627 21.9588 13.4114 22.0665 13.2275 22.1804C13.2022 22.1931 13.1768 22.2121 13.1514 22.2248C12.9358 22.3324 12.7329 22.3831 12.5237 22.3831C11.9974 22.3831 11.6677 22.0538 11.5599 21.9462L9.3913 19.7807C9.1757 19.5654 8.8333 19.3058 8.4338 19.3058C8.0406 19.3058 7.7173 19.5528 7.5207 19.7681C7.5143 19.7744 7.5143 19.7744 7.508 19.7807L4.0142 23.2695C3.361 23.9153 3.361 24.5802 4.0078 25.2513Z" fill="white"/>
<path d="M13.7857 7.1361C12.1243 7.4147 10.6152 8.19983 9.41038 9.40285C8.20558 10.6059 7.42568 12.1128 7.14039 13.7717C7.07059 14.1896 6.70918 14.4809 6.29698 14.4809C6.24628 14.4809 6.20189 14.4745 6.15119 14.4682C5.68188 14.3922 5.37119 13.949 5.44729 13.4805C5.78969 11.4733 6.74088 9.64346 8.19298 8.1935C9.64498 6.74354 11.4776 5.79378 13.4876 5.45187C13.9569 5.37589 14.3944 5.68614 14.4768 6.14836C14.5592 6.61057 14.2549 7.06012 13.7857 7.1361Z" fill="white"/>
<path d="M0.0131855 13.2336C0.577485 9.92848 2.13739 6.92092 4.53419 4.52754C6.93109 2.13415 9.94298 0.576553 13.253 0.0130316C13.7159 -0.0692806 14.1534 0.247305 14.2359 0.709519C14.3119 1.17807 14.0012 1.61495 13.532 1.69727C10.5771 2.19747 7.88218 3.59678 5.73899 5.73056C3.59579 7.87068 2.20079 10.5617 1.69979 13.5122C1.63008 13.9301 1.26869 14.2214 0.856485 14.2214C0.805785 14.2214 0.761386 14.215 0.710686 14.2087C0.247786 14.1391 -0.069315 13.6959 0.0131855 13.2336Z" fill="white"/>
</g>
</g>
<defs>
<clipPath id="clip0_1_2909">
<rect width="30" height="30" fill="white" transform="matrix(-1 0 0 1 30 0)"/>
</clipPath>
</defs>
</svg>
