<svg width="30" height="30" viewBox="0 0 30 30" fill="none" xmlns="http://www.w3.org/2000/svg">
<path d="M3.25 5H26.75C27.8546 5 28.75 5.95513 28.75 7.13333V22.8667C28.75 24.0449 27.8546 25 26.75 25H3.25C2.1454 25 1.25 24.0449 1.25 22.8667V7.13333C1.25 5.95513 2.1454 5 3.25 5ZM15 16.7917L26.535 6.33333H3.465L15 16.7917ZM27.5 7.20833L19.9692 14.0362L27.5 22.6869V7.20833ZM19.0159 14.9006L15.4048 18.1746C15.2881 18.2804 15.1441 18.3333 15 18.3333C14.8559 18.3333 14.7119 18.2804 14.5952 18.1746L10.9841 14.9006L3.3529 23.6667H26.6471L19.0159 14.9006ZM10.0308 14.0362L2.5 7.20833V22.6869L10.0308 14.0362Z" fill="white"/>
</svg>
