<svg width="30" height="30" viewBox="0 0 30 30" fill="none" xmlns="http://www.w3.org/2000/svg">
<g clip-path="url(#clip0_1_2900)">
<path d="M15.2506 0C18.1692 0.00330112 20.9672 1.16414 23.0309 3.22786C25.0946 5.29157 26.2555 8.08962 26.2588 11.0081C26.2588 16.896 16.1732 29.244 15.7439 29.7669C15.684 29.8398 15.6087 29.8985 15.5234 29.9388C15.4381 29.9791 15.345 30 15.2506 30C15.1563 30 15.0632 29.9791 14.9779 29.9388C14.8926 29.8985 14.8173 29.8398 14.7574 29.7669C14.3281 29.244 4.2425 16.896 4.2425 11.0081C4.2458 8.08962 5.4066 5.29157 7.4704 3.22786C9.5341 1.16414 12.3321 0.00330112 15.2506 0ZM15.2506 28.3415C17.2946 25.7618 24.9822 15.7433 24.9822 11.0082C24.9822 9.73019 24.7305 8.46474 24.2414 7.28405C23.7524 6.10337 23.0355 5.03057 22.1319 4.12691C21.2282 3.22325 20.1554 2.50643 18.9747 2.01738C17.7941 1.52832 16.5286 1.27661 15.2506 1.27661C13.9727 1.27661 12.7072 1.52832 11.5265 2.01738C10.3459 2.50643 9.2731 3.22325 8.3694 4.12691C7.4657 5.03057 6.7489 6.10337 6.2599 7.28405C5.7708 8.46474 5.5191 9.73019 5.5191 11.0082C5.5191 15.7433 13.2067 25.7618 15.2506 28.3415Z" fill="white"/>
<path d="M15.2506 6.14844C16.1392 6.14844 17.0078 6.41192 17.7466 6.90557C18.4854 7.39922 19.0612 8.10086 19.4012 8.92177C19.7412 9.74267 19.8302 10.646 19.6569 11.5175C19.4835 12.3889 19.0557 13.1894 18.4274 13.8177C17.7991 14.446 16.9986 14.8739 16.1271 15.0472C15.2556 15.2206 14.3523 15.1316 13.5314 14.7916C12.7105 14.4515 12.0089 13.8757 11.5152 13.1369C11.0216 12.3981 10.7581 11.5295 10.7581 10.641C10.7595 9.44991 11.2332 8.30801 12.0754 7.46578C12.9177 6.62356 14.0596 6.1498 15.2506 6.14844ZM15.2506 13.857C15.8867 13.857 16.5085 13.6683 17.0373 13.315C17.5662 12.9616 17.9784 12.4593 18.2218 11.8717C18.4652 11.2841 18.5289 10.6374 18.4048 10.0136C18.2807 9.38975 17.9744 8.81673 17.5247 8.36697C17.0749 7.91721 16.5019 7.61092 15.878 7.48683C15.2542 7.36274 14.6076 7.42643 14.02 7.66983C13.4323 7.91324 12.93 8.32544 12.5767 8.8543C12.2233 9.38316 12.0347 10.0049 12.0347 10.641C12.0357 11.4936 12.3748 12.311 12.9777 12.9139C13.5806 13.5168 14.398 13.856 15.2506 13.857Z" fill="white"/>
</g>
<defs>
<clipPath id="clip0_1_2900">
<rect width="30" height="30" fill="white" transform="matrix(-1 0 0 1 30 0)"/>
</clipPath>
</defs>
</svg>
