<svg width="62" height="55" viewBox="0 0 62 55" fill="none" xmlns="http://www.w3.org/2000/svg">
<path d="M5.8125 0C2.66406 0 0 2.66406 0 5.8125V34.875C0 45.6523 8.71875 54.25 19.375 54.25H20.3438C22.0391 54.25 23.25 53.0391 23.25 51.3438V45.5312C23.25 43.957 22.0391 42.625 20.3438 42.625H19.375C15.1367 42.625 11.625 39.2344 11.625 34.875V27.125H21.3125C24.582 27.125 27.125 24.582 27.125 21.3125V5.8125C27.125 2.66406 24.582 0 21.3125 0H5.8125ZM40.6875 0C37.5391 0 34.875 2.66406 34.875 5.8125V34.875C34.875 45.6523 43.5938 54.25 54.25 54.25H55.2188C56.9141 54.25 58.125 53.0391 58.125 51.3438V45.5312C58.125 43.957 56.9141 42.625 55.2188 42.625H54.25C50.0117 42.625 46.5 39.2344 46.5 34.875V27.125H56.1875C59.457 27.125 62 24.582 62 21.3125V5.8125C62 2.66406 59.457 0 56.1875 0H40.6875Z" fill="#CECCFD"/>
</svg>
