<svg width="35" height="32" viewBox="0 0 35 32" fill="none" xmlns="http://www.w3.org/2000/svg">
<path d="M6.3666 21.2224C4.24443 22.486 -1.31972 25.0662 2.06923 28.2948C3.7247 29.872 5.56846 31 7.88653 31H21.1139C23.432 31 25.2758 29.872 26.9312 28.2948C30.3202 25.0662 24.756 22.486 22.6338 21.2224C17.6574 18.2592 11.343 18.2592 6.3666 21.2224Z" stroke="white" stroke-width="2" stroke-linecap="round" stroke-linejoin="round"/>
<path d="M21.0002 7.5C21.0002 11.0899 18.09 14 14.5002 14C10.9104 14 8.00023 11.0899 8.00023 7.5C8.00023 3.91015 10.9104 1 14.5002 1C18.09 1 21.0002 3.91015 21.0002 7.5Z" stroke="white" stroke-width="2"/>
<path d="M30.0371 3.94273C30.4097 3.53903 30.5959 3.3372 30.7939 3.21946C31.2716 2.93538 31.8597 2.92655 32.3454 3.19616C32.5467 3.3079 32.7387 3.50406 33.1227 3.89638C33.5067 4.2887 33.6989 4.48486 33.8082 4.69046C34.0721 5.18657 34.0636 5.7874 33.7854 6.27535C33.6701 6.47758 33.4726 6.66789 33.0774 7.0485L28.3756 11.5772C27.6267 12.2984 27.2522 12.6591 26.7842 12.8419C26.3162 13.0247 25.8019 13.0112 24.7729 12.9843L24.6329 12.9806C24.3197 12.9724 24.1631 12.9684 24.0721 12.865C23.9811 12.7617 23.9934 12.6022 24.0182 12.2831L24.0317 12.1098C24.1017 11.2118 24.1367 10.7628 24.3121 10.3591C24.4874 9.95547 24.7899 9.62774 25.3949 8.97226L30.0371 3.94273Z" stroke="white" stroke-width="2" stroke-linejoin="round"/>
</svg>
