<svg width="150" height="150" viewBox="0 0 150 150" fill="none" xmlns="http://www.w3.org/2000/svg">
<rect x="0.5" y="0.5" width="149" height="149" rx="74.5" fill="url(#paint0_linear_1_2011)"/>
<rect x="0.5" y="0.5" width="149" height="149" rx="74.5" stroke="#C9C9DD"/>
<g clip-path="url(#clip0_1_2011)">
<path d="M94.9736 56.1167H101.39C101.757 56.1167 102.032 55.9944 102.215 55.75C102.399 55.5056 102.49 55.2611 102.49 55.0167V48.6C102.49 48.2333 102.399 47.9583 102.215 47.775C102.032 47.5917 101.757 47.5 101.39 47.5H94.9736C94.7291 47.5 94.4847 47.5917 94.2402 47.775C93.9958 47.9583 93.8736 48.2333 93.8736 48.6V50.6167H79.2069V48.6C79.2069 48.2333 79.1152 47.9583 78.9319 47.775C78.7486 47.5917 78.4736 47.5 78.1069 47.5H71.8736C71.5069 47.5 71.2319 47.5917 71.0486 47.775C70.8652 47.9583 70.7736 48.2333 70.7736 48.6V50.6167H56.1069V48.6C56.1069 48.2333 55.9847 47.9583 55.7402 47.775C55.4958 47.5917 55.2513 47.5 55.0069 47.5H48.5902C48.2236 47.5 47.9486 47.5917 47.7652 47.775C47.5819 47.9583 47.4902 48.2333 47.4902 48.6V55.0167C47.4902 55.2611 47.5819 55.5056 47.7652 55.75C47.9486 55.9944 48.2236 56.1167 48.5902 56.1167H55.0069C55.2513 56.1167 55.4958 55.9944 55.7402 55.75C55.9847 55.5056 56.1069 55.2611 56.1069 55.0167V52.8167H64.9069C61.7291 54.2833 58.9791 56.3611 56.6569 59.05C54.8236 61.1278 53.418 63.45 52.4402 66.0167C51.4625 68.5833 50.9125 71.2111 50.7902 73.9H48.5902C48.2236 73.9 47.9486 74.0222 47.7652 74.2667C47.5819 74.5111 47.4902 74.7556 47.4902 75V81.4167C47.4902 81.6611 47.5819 81.9056 47.7652 82.15C47.9486 82.3944 48.2236 82.5167 48.5902 82.5167H55.0069C55.2513 82.5167 55.4958 82.3944 55.7402 82.15C55.9847 81.9056 56.1069 81.6611 56.1069 81.4167V75C56.1069 74.7556 55.9847 74.5111 55.7402 74.2667C55.4958 74.0222 55.2513 73.9 55.0069 73.9H52.8069C53.0513 70.6 53.968 67.4833 55.5569 64.55C57.1458 61.6167 59.2541 59.1722 61.8819 57.2167C64.5097 55.2611 67.4736 53.9167 70.7736 53.1833V55.0167C70.7736 55.2611 70.8652 55.5056 71.0486 55.75C71.2319 55.9944 71.5069 56.1167 71.8736 56.1167H78.1069C78.4736 56.1167 78.7486 55.9944 78.9319 55.75C79.1152 55.5056 79.2069 55.2611 79.2069 55.0167V53.1833C82.5069 53.9167 85.4708 55.2611 88.0986 57.2167C90.7263 59.1722 92.8347 61.6167 94.4236 64.55C96.0125 67.4833 96.9291 70.6 97.1736 73.9H94.9736C94.7291 73.9 94.4847 74.0222 94.2402 74.2667C93.9958 74.5111 93.8736 74.7556 93.8736 75V81.4167C93.8736 81.6611 93.9958 81.9056 94.2402 82.15C94.4847 82.3944 94.7291 82.5167 94.9736 82.5167H101.39C101.757 82.5167 102.032 82.3944 102.215 82.15C102.399 81.9056 102.49 81.6611 102.49 81.4167V75C102.49 74.7556 102.399 74.5111 102.215 74.2667C102.032 74.0222 101.757 73.9 101.39 73.9H99.1902C99.068 71.2111 98.518 68.5833 97.5402 66.0167C96.5625 63.45 95.1569 61.1278 93.3236 59.05C91.0013 56.3611 88.2513 54.2833 85.0736 52.8167H93.8736V55.0167C93.8736 55.2611 93.9958 55.5056 94.2402 55.75C94.4847 55.9944 94.7291 56.1167 94.9736 56.1167ZM53.9069 53.9167H49.6902V49.7H53.9069V53.9167ZM53.9069 80.3167H49.6902V76.1H53.9069V80.3167ZM100.29 80.3167H96.0736V76.1H100.29V80.3167ZM77.1902 53.9167H72.7902V49.7H77.1902V53.9167ZM96.0736 49.7H100.29V53.9167H96.0736V49.7ZM75.9069 59.4167C75.6625 59.05 75.3569 58.8667 74.9902 58.8667C74.6236 58.8667 74.318 59.05 74.0736 59.4167L69.6736 67.4833C69.4291 67.7278 69.368 68.0028 69.4902 68.3083C69.6125 68.6139 69.7958 68.8278 70.0402 68.95C70.2847 69.0722 70.5597 69.1028 70.8652 69.0417C71.1708 68.9806 71.3847 68.7667 71.5069 68.4L73.8902 64V71.8833C73.1569 72.1278 72.5458 72.5861 72.0569 73.2583C71.568 73.9306 71.3236 74.725 71.3236 75.6417C71.3236 76.5583 71.6902 77.3528 72.4236 78.025C73.1569 78.6972 74.0125 79.0333 74.9902 79.0333C75.968 79.0333 76.8236 78.6972 77.5569 78.025C78.2902 77.3528 78.6569 76.5583 78.6569 75.6417C78.6569 74.725 78.4125 73.9306 77.9236 73.2583C77.4347 72.5861 76.8236 72.1278 76.0902 71.8833V64L83.4236 77.3833C80.9791 79.95 79.3902 82.9444 78.6569 86.3667H71.3236C70.5902 82.9444 69.0013 79.95 66.5569 77.3833L67.8402 75.1833C67.9625 74.9389 67.9625 74.6639 67.8402 74.3583C67.718 74.0528 67.5347 73.8389 67.2902 73.7167C67.0458 73.5944 66.8013 73.5639 66.5569 73.625C66.3125 73.6861 66.068 73.8389 65.8236 74.0833L64.3569 77.0167C63.9902 77.5056 64.0513 77.9944 64.5402 78.4833C66.8625 80.5611 68.3902 83.1889 69.1236 86.3667H68.0236C67.168 86.3667 66.4347 86.6722 65.8236 87.2833C65.2125 87.8944 64.9069 88.6889 64.9069 89.6667C64.9069 90.2778 65.0597 90.8278 65.3652 91.3167C65.6708 91.8056 66.068 92.1722 66.5569 92.4167V101.4C66.5569 101.767 66.6791 102.042 66.9236 102.225C67.168 102.408 67.443 102.5 67.7486 102.5C68.0541 102.5 68.2986 102.408 68.4819 102.225C68.6652 102.042 68.7569 101.767 68.7569 101.4V92.7833H81.2236V101.4C81.2236 101.767 81.3152 102.042 81.4986 102.225C81.6819 102.408 81.9263 102.5 82.2319 102.5C82.5375 102.5 82.8125 102.408 83.0569 102.225C83.3013 102.042 83.4236 101.767 83.4236 101.4V92.4167C83.9125 92.1722 84.3097 91.8056 84.6152 91.3167C84.9208 90.8278 85.0736 90.2778 85.0736 89.6667C85.0736 88.6889 84.768 87.8944 84.1569 87.2833C83.5458 86.6722 82.8125 86.3667 81.9569 86.3667H80.8569C81.5902 83.1889 83.118 80.5611 85.4402 78.4833C85.9291 77.9944 85.9902 77.5056 85.6236 77.0167L75.9069 59.4167ZM74.9902 77.0167C74.6236 77.0167 74.2875 76.8639 73.9819 76.5583C73.6763 76.2528 73.5236 75.8861 73.5236 75.4583C73.5236 75.0306 73.6763 74.6639 73.9819 74.3583C74.2875 74.0528 74.6236 73.9 74.9902 73.9C75.3569 73.9 75.693 74.0528 75.9986 74.3583C76.3041 74.6639 76.4569 75.0306 76.4569 75.4583C76.4569 75.8861 76.3041 76.2528 75.9986 76.5583C75.693 76.8639 75.3569 77.0167 74.9902 77.0167ZM83.0569 89.6667C83.0569 89.9111 82.9347 90.1556 82.6902 90.4C82.4458 90.6444 82.2013 90.7667 81.9569 90.7667H68.0236C67.7791 90.7667 67.5347 90.6444 67.2902 90.4C67.0458 90.1556 66.9236 89.8806 66.9236 89.575C66.9236 89.2694 67.0458 89.025 67.2902 88.8417C67.5347 88.6583 67.7791 88.5667 68.0236 88.5667H81.9569C82.2013 88.5667 82.4458 88.6583 82.6902 88.8417C82.9347 89.025 83.0569 89.3 83.0569 89.6667ZM68.5736 72.4333C68.9402 72.4333 69.2152 72.3417 69.3986 72.1583C69.5819 71.975 69.6736 71.7306 69.6736 71.425C69.6736 71.1194 69.5819 70.8444 69.3986 70.6C69.2152 70.3556 68.9708 70.2333 68.6652 70.2333C68.3597 70.2333 68.0847 70.3556 67.8402 70.6C67.5958 70.8444 67.4736 71.1194 67.4736 71.425C67.4736 71.7306 67.5958 71.975 67.8402 72.1583C68.0847 72.3417 68.3291 72.4333 68.5736 72.4333Z" fill="#7F7E97"/>
</g>
<g clip-path="url(#clip1_1_2011)">
<g clip-path="url(#clip2_1_2011)">
<path d="M123 40.4234C122.494 40.8003 122.241 41.1772 121.987 41.3029C120.722 41.8055 119.456 42.308 118.19 42.8106C116.291 43.4388 115.152 44.6953 114.899 46.7056C114.646 48.339 114.392 49.9724 114.013 51.6058C113.886 52.1083 113.506 52.8622 113.127 52.9879C112.367 53.1135 112.367 52.234 112.24 51.7314C111.734 50.2237 111.228 48.5903 110.848 47.0825C110.215 44.9466 108.823 43.8158 106.544 43.8158C105.658 43.8158 104.899 43.6901 104.013 43.5645C103.506 43.5645 103.253 43.3132 103 43.0619C103.253 42.8106 103.38 42.4337 103.633 42.308C104.899 41.8055 106.291 41.3029 107.557 40.9259C108.823 40.549 109.709 39.6695 109.962 38.413C110.468 36.4027 110.848 34.3924 111.354 32.5077C111.608 31.8795 111.354 31 112.24 31C113.127 31 113 31.7539 113.127 32.2565C113.506 34.0155 113.886 35.6489 114.392 37.4079C115.025 39.6695 115.532 40.0464 117.937 40.0464C119.203 40.0464 120.595 39.9208 121.861 39.9208C121.987 39.9208 122.367 40.1721 123 40.4234Z" fill="#CECCFD"/>
<path d="M103 31.7117C102.747 31.9001 102.62 32.0886 102.494 32.1514C101.861 32.4027 101.228 32.654 100.595 32.9053C99.6456 33.2194 99.0759 33.8477 98.9494 34.8528C98.8228 35.6695 98.6962 36.4862 98.5063 37.3029C98.443 37.5542 98.2532 37.9311 98.0633 37.9939C97.6835 38.0568 97.6835 37.617 97.6203 37.3657C97.3671 36.6118 97.1139 35.7951 96.9241 35.0413C96.6076 33.9733 95.9114 33.4079 94.7722 33.4079C94.3291 33.4079 93.9494 33.3451 93.5063 33.2822C93.2532 33.2822 93.1266 33.1566 93 33.031C93.1266 32.9053 93.1899 32.7168 93.3165 32.654C93.9494 32.4027 94.6456 32.1514 95.2785 31.963C95.9114 31.7745 96.3544 31.3348 96.481 30.7065C96.7342 29.7014 96.924 28.6962 97.1772 27.7539C97.3038 27.4398 97.1772 27 97.6203 27C98.0633 27 98 27.3769 98.0633 27.6282C98.2532 28.5077 98.443 29.3244 98.6962 30.2039C99.0127 31.3348 99.2658 31.5232 100.468 31.5232C101.101 31.5232 101.797 31.4604 102.43 31.4604C102.494 31.4604 102.684 31.586 103 31.7117Z" fill="#CECCFD"/>
</g>
</g>
<defs>
<linearGradient id="paint0_linear_1_2011" x1="75" y1="0" x2="75" y2="150" gradientUnits="userSpaceOnUse">
<stop stop-color="white"/>
<stop offset="1" stop-color="#F1F1FA"/>
</linearGradient>
<clipPath id="clip0_1_2011">
<rect width="55.02" height="55" fill="white" transform="matrix(1 0 0 -1 47.4805 102.5)"/>
</clipPath>
<clipPath id="clip1_1_2011">
<rect width="30" height="26" fill="white" transform="translate(93 27)"/>
</clipPath>
<clipPath id="clip2_1_2011">
<rect width="30" height="26" fill="white" transform="translate(93 27)"/>
</clipPath>
</defs>
</svg>
