<svg width="150" height="150" viewBox="0 0 150 150" fill="none" xmlns="http://www.w3.org/2000/svg">
<rect x="0.5" y="0.5" width="149" height="149" rx="74.5" fill="url(#paint0_linear_1_2044)"/>
<rect x="0.5" y="0.5" width="149" height="149" rx="74.5" stroke="#C9C9DD"/>
<g clip-path="url(#clip0_1_2044)">
<path d="M69.4902 53.9167C69.2458 53.6722 69.0013 53.55 68.7569 53.55C68.5125 53.55 68.268 53.6417 68.0236 53.825C67.7791 54.0083 67.6569 54.2528 67.6569 54.5583C67.6569 54.8639 67.7791 55.1389 68.0236 55.3833C68.268 55.6278 68.5125 55.75 68.7569 55.75C69.0013 55.75 69.2458 55.6278 69.4902 55.3833C69.7347 55.1389 69.8569 54.8639 69.8569 54.5583C69.8569 54.2528 69.7347 54.0389 69.4902 53.9167ZM64.7236 53.55H60.5069C60.1402 53.55 59.8652 53.6417 59.6819 53.825C59.4986 54.0083 59.4069 54.2528 59.4069 54.5583C59.4069 54.8639 59.4986 55.1389 59.6819 55.3833C59.8652 55.6278 60.1402 55.75 60.5069 55.75H64.7236C65.0902 55.75 65.3652 55.6278 65.5486 55.3833C65.7319 55.1389 65.8236 54.8639 65.8236 54.5583C65.8236 54.2528 65.7319 54.0083 65.5486 53.825C65.3652 53.6417 65.0902 53.55 64.7236 53.55ZM65.6402 59.6H60.5069C60.1402 59.6 59.8652 59.6917 59.6819 59.875C59.4986 60.0583 59.4069 60.3028 59.4069 60.6083C59.4069 60.9139 59.4986 61.1583 59.6819 61.3417C59.8652 61.525 60.1402 61.6167 60.5069 61.6167H65.6402C65.8847 61.6167 66.1291 61.525 66.3736 61.3417C66.618 61.1583 66.7402 60.9139 66.7402 60.6083C66.7402 60.3028 66.618 60.0583 66.3736 59.875C66.1291 59.6917 65.8847 59.6 65.6402 59.6ZM102.124 69.8667L94.9736 64.3667V63.2667C94.9736 62.9 94.8819 62.625 94.6986 62.4417C94.5152 62.2583 94.2708 62.1667 93.9652 62.1667C93.6597 62.1667 93.3847 62.2583 93.1402 62.4417C92.8958 62.625 92.7736 62.9 92.7736 63.2667V77.75L83.9736 86.7333L82.8736 85.8167C81.2847 84.2278 79.3902 83.25 77.1902 82.8833L79.9402 80.1333C80.1847 79.8889 80.3069 79.6139 80.3069 79.3083C80.3069 79.0028 80.1847 78.7889 79.9402 78.6667L76.4569 75L92.2236 68.2167C92.468 68.0944 92.6513 67.85 92.7736 67.4833C92.8958 67.1167 92.7736 66.8111 92.4069 66.5667L87.2736 61.4333C87.7625 60.7 88.0069 59.9056 88.0069 59.05C88.0069 57.7056 87.5486 56.6056 86.6319 55.75C85.7152 54.8944 84.6458 54.4667 83.4236 54.4667C82.568 54.4667 81.7736 54.65 81.0402 55.0167L75.9069 49.8833C75.6625 49.6389 75.3569 49.5472 74.9902 49.6083C74.6236 49.6694 74.3791 49.8833 74.2569 50.25L66.9236 67.3L63.0736 71.15C61.9736 72.3722 61.4236 73.7778 61.4236 75.3667C61.4236 76.9556 61.9736 78.3 63.0736 79.4C64.1736 80.5 65.518 81.05 67.1069 81.05C68.6958 81.05 70.1013 80.5 71.3236 79.4L71.6902 79.0333L75.3569 82.7H74.9902C71.9347 82.7 69.3069 83.7389 67.1069 85.8167L66.0069 86.7333L57.2069 77.75V49.7H69.1236C69.4902 49.7 69.7652 49.5778 69.9486 49.3333C70.1319 49.0889 70.2236 48.8139 70.2236 48.5083C70.2236 48.2028 70.1319 47.9583 69.9486 47.775C69.7652 47.5917 69.4902 47.5 69.1236 47.5H56.1069C55.7402 47.5 55.4652 47.5917 55.2819 47.775C55.0986 47.9583 55.0069 48.2333 55.0069 48.6V64.1833L47.8569 69.8667C47.6125 70.1111 47.4902 70.4167 47.4902 70.7833V97C47.4902 98.4667 48.0402 99.75 49.1402 100.85C50.2402 101.95 51.5236 102.5 52.9902 102.5H96.9902C98.4569 102.5 99.7402 101.95 100.84 100.85C101.94 99.75 102.49 98.4667 102.49 97V70.7833C102.49 70.4167 102.368 70.1111 102.124 69.8667ZM94.9736 67.1167L99.7402 70.7833L94.9736 75.55V67.1167ZM83.4236 56.6667C84.1569 56.6667 84.7375 56.8806 85.1652 57.3083C85.593 57.7361 85.8069 58.3167 85.8069 59.05C85.8069 59.2944 85.8069 59.5389 85.8069 59.7833L82.6902 56.6667C82.9347 56.6667 83.1791 56.6667 83.4236 56.6667ZM75.5402 52.6333L80.3069 57.2167L89.8402 66.9333L87.6402 67.85L74.6236 54.8333L75.5402 52.6333ZM73.7069 57.0333L85.4402 68.7667L74.8069 73.35L69.1236 67.6667L73.7069 57.0333ZM69.6736 77.9333C68.9402 78.6667 68.0847 79.0333 67.1069 79.0333C66.1291 79.0333 65.2736 78.6667 64.5402 77.9333C63.8069 77.2 63.4402 76.3139 63.4402 75.275C63.4402 74.2361 63.8069 73.4111 64.5402 72.8L67.8402 69.5L72.9736 74.6333L69.6736 77.9333ZM73.1569 77.5667L74.4402 76.1L77.7402 79.4L76.4569 80.6833L73.1569 77.5667ZM55.0069 66.9333V75.55L50.2402 70.7833L55.0069 66.9333ZM51.5236 99.9333C51.5236 99.9333 51.4625 99.9333 51.3402 99.9333C50.8513 99.6889 50.4541 99.2917 50.1486 98.7417C49.843 98.1917 49.6902 97.6111 49.6902 97V73.35L64.5402 88.2L51.5236 99.9333ZM54.0902 100.3L57.7569 97.1833H65.6402C65.8847 97.1833 66.1291 97.0611 66.3736 96.8167C66.618 96.5722 66.7402 96.2972 66.7402 95.9917C66.7402 95.6861 66.618 95.4417 66.3736 95.2583C66.1291 95.075 65.8847 94.9833 65.6402 94.9833H60.1402L68.5736 87.2833C70.4069 85.5722 72.5458 84.7167 74.9902 84.7167C77.4347 84.7167 79.5736 85.5722 81.4069 87.2833L95.8902 100.3H54.0902ZM100.29 97C100.29 97.6111 100.137 98.1917 99.8319 98.7417C99.5263 99.2917 99.1291 99.6889 98.6402 99.9333L85.4402 88.2L100.29 73.35V97ZM94.7902 47.8667C94.5458 47.6222 94.2708 47.5 93.9652 47.5C93.6597 47.5 93.3847 47.6222 93.1402 47.8667L88.9236 52.2667C88.6791 52.3889 88.5569 52.6028 88.5569 52.9083C88.5569 53.2139 88.6486 53.4889 88.8319 53.7333C89.0152 53.9778 89.2597 54.1 89.5652 54.1C89.8708 54.1 90.1458 53.9778 90.3902 53.7333L94.7902 49.3333C94.9125 49.2111 94.9736 48.9972 94.9736 48.6917C94.9736 48.3861 94.9125 48.1111 94.7902 47.8667ZM85.6236 47.5C85.2569 47.5 84.9819 47.5917 84.7986 47.775C84.6152 47.9583 84.5236 48.2333 84.5236 48.6V50.8C84.5236 51.0444 84.6152 51.2583 84.7986 51.4417C84.9819 51.625 85.2263 51.7167 85.5319 51.7167C85.8375 51.7167 86.1125 51.625 86.3569 51.4417C86.6013 51.2583 86.7236 51.0444 86.7236 50.8V48.6C86.7236 48.2333 86.6013 47.9583 86.3569 47.775C86.1125 47.5917 85.868 47.5 85.6236 47.5ZM94.0569 55.75H91.6736C91.4291 55.75 91.2152 55.8722 91.0319 56.1167C90.8486 56.3611 90.7569 56.6361 90.7569 56.9417C90.7569 57.2472 90.8486 57.4917 91.0319 57.675C91.2152 57.8583 91.4291 57.95 91.6736 57.95H94.0569C94.3013 57.95 94.5152 57.8583 94.6986 57.675C94.8819 57.4917 94.9736 57.2472 94.9736 56.9417C94.9736 56.6361 94.8819 56.3611 94.6986 56.1167C94.5152 55.8722 94.3013 55.75 94.0569 55.75ZM70.7736 95.35C70.5291 95.1056 70.2541 94.9833 69.9486 94.9833C69.643 94.9833 69.3986 95.075 69.2152 95.2583C69.0319 95.4417 68.9402 95.6861 68.9402 95.9917C68.9402 96.2972 69.0319 96.5722 69.2152 96.8167C69.3986 97.0611 69.643 97.1833 69.9486 97.1833C70.2541 97.1833 70.5291 97.0611 70.7736 96.8167C71.018 96.5722 71.1402 96.2972 71.1402 95.9917C71.1402 95.6861 71.018 95.4722 70.7736 95.35Z" fill="#7F7E97"/>
</g>
<g clip-path="url(#clip1_1_2044)">
<g clip-path="url(#clip2_1_2044)">
<path d="M123 40.4234C122.494 40.8003 122.241 41.1772 121.987 41.3029C120.722 41.8055 119.456 42.308 118.19 42.8106C116.291 43.4388 115.152 44.6953 114.899 46.7056C114.646 48.339 114.392 49.9724 114.013 51.6058C113.886 52.1083 113.506 52.8622 113.127 52.9879C112.367 53.1135 112.367 52.234 112.24 51.7314C111.734 50.2237 111.228 48.5903 110.848 47.0825C110.215 44.9466 108.823 43.8158 106.544 43.8158C105.658 43.8158 104.899 43.6901 104.013 43.5645C103.506 43.5645 103.253 43.3132 103 43.0619C103.253 42.8106 103.38 42.4337 103.633 42.308C104.899 41.8055 106.291 41.3029 107.557 40.9259C108.823 40.549 109.709 39.6695 109.962 38.413C110.468 36.4027 110.848 34.3924 111.354 32.5077C111.608 31.8795 111.354 31 112.24 31C113.127 31 113 31.7539 113.127 32.2565C113.506 34.0155 113.886 35.6489 114.392 37.4079C115.025 39.6695 115.532 40.0464 117.937 40.0464C119.203 40.0464 120.595 39.9208 121.861 39.9208C121.987 39.9208 122.367 40.1721 123 40.4234Z" fill="#CECCFD"/>
<path d="M103 31.7117C102.747 31.9001 102.62 32.0886 102.494 32.1514C101.861 32.4027 101.228 32.654 100.595 32.9053C99.6456 33.2194 99.0759 33.8477 98.9494 34.8528C98.8228 35.6695 98.6962 36.4862 98.5063 37.3029C98.443 37.5542 98.2532 37.9311 98.0633 37.9939C97.6835 38.0568 97.6835 37.617 97.6203 37.3657C97.3671 36.6118 97.1139 35.7951 96.9241 35.0413C96.6076 33.9733 95.9114 33.4079 94.7722 33.4079C94.3291 33.4079 93.9494 33.3451 93.5063 33.2822C93.2532 33.2822 93.1266 33.1566 93 33.031C93.1266 32.9053 93.1899 32.7168 93.3165 32.654C93.9494 32.4027 94.6456 32.1514 95.2785 31.963C95.9114 31.7745 96.3544 31.3348 96.481 30.7065C96.7342 29.7014 96.924 28.6962 97.1772 27.7539C97.3038 27.4398 97.1772 27 97.6203 27C98.0633 27 98 27.3769 98.0633 27.6282C98.2532 28.5077 98.443 29.3244 98.6962 30.2039C99.0127 31.3348 99.2658 31.5232 100.468 31.5232C101.101 31.5232 101.797 31.4604 102.43 31.4604C102.494 31.4604 102.684 31.586 103 31.7117Z" fill="#CECCFD"/>
</g>
</g>
<defs>
<linearGradient id="paint0_linear_1_2044" x1="75" y1="0" x2="75" y2="150" gradientUnits="userSpaceOnUse">
<stop stop-color="white"/>
<stop offset="1" stop-color="#F1F1FA"/>
</linearGradient>
<clipPath id="clip0_1_2044">
<rect width="55.02" height="55" fill="white" transform="matrix(1 0 0 -1 47.4805 102.5)"/>
</clipPath>
<clipPath id="clip1_1_2044">
<rect width="30" height="26" fill="white" transform="translate(93 27)"/>
</clipPath>
<clipPath id="clip2_1_2044">
<rect width="30" height="26" fill="white" transform="translate(93 27)"/>
</clipPath>
</defs>
</svg>
