<svg width="162" height="160" viewBox="0 0 162 160" fill="none" xmlns="http://www.w3.org/2000/svg">
<path d="M81 109.952C122.421 109.952 156 96.5204 156 79.9519C156 63.3834 122.421 49.9519 81 49.9519C39.5786 49.9519 6 63.3834 6 79.9519C6 96.5204 39.5786 109.952 81 109.952Z" stroke="#61DAFB" stroke-width="12"/>
<path d="M55.0192 94.9519C75.7299 130.824 104.151 153.188 118.5 144.904C132.849 136.62 127.691 100.824 106.981 64.9519C86.2701 29.08 57.8488 6.71573 43.5 15C29.1512 23.2843 34.3086 59.08 55.0192 94.9519Z" stroke="#61DAFB" stroke-width="12"/>
<path d="M55.0192 64.9519C34.3086 100.824 29.1512 136.62 43.5 144.904C57.8488 153.188 86.2701 130.824 106.981 94.9519C127.691 59.08 132.849 23.2843 118.5 15C104.151 6.71573 75.7299 29.08 55.0192 64.9519Z" stroke="#61DAFB" stroke-width="12"/>
<path d="M81 93.9519C88.732 93.9519 95 87.6839 95 79.9519C95 72.2199 88.732 65.9519 81 65.9519C73.268 65.9519 67 72.2199 67 79.9519C67 87.6839 73.268 93.9519 81 93.9519Z" fill="#61DAFB"/>
</svg>
