<svg width="22" height="18" viewBox="0 0 22 18" fill="none" xmlns="http://www.w3.org/2000/svg">
<path d="M4.30128 7.11476C4.06323 9.04969 3.92139 10.9966 3.87633 12.9474C6.36785 14.0524 8.7534 15.4096 11 17C13.2469 15.4095 15.6327 14.0524 18.1245 12.9474C18.0794 10.9966 17.9376 9.04969 17.6996 7.11476M17.6996 7.11476C18.4569 6.84458 19.2245 6.59462 20 6.36672C17.1756 4.26437 14.1607 2.46656 11 1C7.83931 2.46686 4.82437 4.26499 2 6.36764C2.7731 6.59428 3.54019 6.84341 4.30041 7.11476C6.61002 7.93925 8.85096 8.96652 11 10.1859C13.1487 8.96651 15.3903 7.93924 17.6996 7.11476ZM6.45629 11.5745C6.62845 11.5745 6.79355 11.5019 6.91528 11.3726C7.03701 11.2433 7.10539 11.068 7.10539 10.8852C7.10539 10.7025 7.03701 10.5271 6.91528 10.3979C6.79355 10.2686 6.62845 10.196 6.45629 10.196C6.28414 10.196 6.11904 10.2686 5.99731 10.3979C5.87558 10.5271 5.80719 10.7025 5.80719 10.8852C5.80719 11.068 5.87558 11.2433 5.99731 11.3726C6.11904 11.5019 6.28414 11.5745 6.45629 11.5745ZM6.45629 11.5745V8.19729C7.92476 7.2281 9.44155 6.34399 11 5.54885M4.93567 16.1628C5.41857 15.6513 5.80151 15.0435 6.06247 14.3744C6.32344 13.7053 6.45727 12.9879 6.45629 12.2637V10.8852" stroke="#888888"/>
</svg>
