<svg width="150" height="151" viewBox="0 0 150 151" fill="none" xmlns="http://www.w3.org/2000/svg">
<rect x="0.5" y="1.28003" width="149" height="149" rx="74.5" fill="url(#paint0_linear_1_2066)"/>
<rect x="0.5" y="1.28003" width="149" height="149" rx="74.5" stroke="#C9C9DD"/>
<g clip-path="url(#clip0_1_2066)">
<path d="M88.0986 96.3135C87.7319 96.3135 87.4875 96.1912 87.3652 95.9468C86.8763 95.0912 86.2041 94.4801 85.3486 94.1135L81.4986 92.4635C81.2541 92.4635 81.1013 92.3412 81.0402 92.0968C80.9791 91.8523 80.9791 91.6079 81.0402 91.3635C81.1013 91.119 81.2541 90.9662 81.4986 90.9051C81.743 90.844 81.9875 90.8746 82.2319 90.9968L85.8986 92.4635C87.1208 93.0746 88.0986 93.9301 88.8319 95.0301C88.9541 95.2746 88.9847 95.519 88.9236 95.7635C88.8625 96.0079 88.7402 96.1607 88.5569 96.2218C88.3736 96.2829 88.2208 96.3135 88.0986 96.3135ZM70.4986 96.3135C70.3763 96.3135 70.2236 96.2829 70.0402 96.2218C69.8569 96.1607 69.7347 96.0079 69.6736 95.7635C69.6125 95.519 69.643 95.2746 69.7652 95.0301C70.3763 93.9301 71.293 93.0746 72.5152 92.4635L76.3652 90.9968C76.6097 90.8746 76.8236 90.844 77.0069 90.9051C77.1902 90.9662 77.343 91.119 77.4652 91.3635C77.5875 91.6079 77.5875 91.8218 77.4652 92.0051C77.343 92.1885 77.2208 92.3412 77.0986 92.4635L73.2486 94.1135C72.393 94.4801 71.7208 95.0912 71.2319 95.9468C70.9875 96.1912 70.743 96.3135 70.4986 96.3135ZM81.8652 92.4635C81.6208 92.4635 81.4069 92.3718 81.2236 92.1885C81.0402 92.0051 80.9486 91.7912 80.9486 91.5468V88.6135C80.9486 88.369 81.0708 88.1246 81.3152 87.8801C82.1708 87.269 82.5986 86.4135 82.5986 85.3135V82.5635C82.5986 81.7079 82.2625 80.944 81.5902 80.2718C80.918 79.5996 80.1236 79.2635 79.2069 79.2635C78.2902 79.2635 77.4958 79.5996 76.8236 80.2718C76.1513 80.944 75.8152 81.7079 75.8152 82.5635V85.3135C75.8152 86.4135 76.243 87.269 77.0986 87.8801C77.343 88.1246 77.4652 88.369 77.4652 88.6135V91.5468C77.4652 91.7912 77.4041 92.0051 77.2819 92.1885C77.1597 92.3718 76.9763 92.4635 76.7319 92.4635C76.4875 92.4635 76.2736 92.3718 76.0902 92.1885C75.9069 92.0051 75.8152 91.7912 75.8152 91.5468V88.9801C74.7152 88.0023 74.1652 86.7801 74.1652 85.3135V82.5635C74.1652 81.219 74.6541 80.0273 75.6319 78.9885C76.6097 77.9496 77.8013 77.4301 79.2069 77.4301C80.6125 77.4301 81.8347 77.9496 82.8736 78.9885C83.9125 80.0273 84.4319 81.219 84.4319 82.5635V85.3135C84.4319 86.7801 83.8208 88.0023 82.5986 88.9801V91.5468C82.5986 91.7912 82.5375 92.0051 82.4152 92.1885C82.293 92.3718 82.1097 92.4635 81.8652 92.4635ZM80.0319 90.2635C79.6652 90.2635 79.4208 90.1107 79.2986 89.8051C79.1763 89.4996 79.2069 89.2246 79.3902 88.9801C79.5736 88.7357 79.7263 88.6135 79.8486 88.6135C80.7041 88.4912 81.3763 88.094 81.8652 87.4218C82.3541 86.7496 82.5986 86.0468 82.5986 85.3135C82.5986 85.069 82.6902 84.8551 82.8736 84.6718C83.0569 84.4885 83.2708 84.3968 83.5152 84.3968C83.7597 84.3968 83.9736 84.4885 84.1569 84.6718C84.3402 84.8551 84.4319 85.069 84.4319 85.3135C84.4319 86.5357 84.0347 87.6051 83.2402 88.5218C82.4458 89.4385 81.4375 90.019 80.2152 90.2635H80.0319ZM75.9986 75.7801C75.6319 75.7801 75.3875 75.6579 75.2652 75.4135C74.7763 74.5579 74.1041 73.9468 73.2486 73.5801L69.3986 71.9301C69.2763 71.8079 69.1541 71.6246 69.0319 71.3801C68.9097 71.1357 68.9097 70.9218 69.0319 70.7385C69.1541 70.5551 69.3069 70.4023 69.4902 70.2801C69.6736 70.1579 69.8875 70.1579 70.1319 70.2801L73.9819 71.9301C75.2041 72.419 76.1208 73.2746 76.7319 74.4968C76.8541 74.7412 76.8847 74.9551 76.8236 75.1385C76.7625 75.3218 76.6402 75.4746 76.4569 75.5968C76.2736 75.719 76.1208 75.7801 75.9986 75.7801ZM58.3986 75.7801C58.2763 75.7801 58.1236 75.719 57.9402 75.5968C57.7569 75.4746 57.6347 75.3218 57.5736 75.1385C57.5125 74.9551 57.543 74.7412 57.6652 74.4968C58.3986 73.2746 59.3763 72.419 60.5986 71.9301L64.2652 70.2801C64.5097 70.1579 64.7541 70.1579 64.9986 70.2801C65.243 70.4023 65.3958 70.5551 65.4569 70.7385C65.518 70.9218 65.518 71.1357 65.4569 71.3801C65.3958 71.6246 65.243 71.8079 64.9986 71.9301L61.1486 73.5801C60.293 73.9468 59.6208 74.5579 59.1319 75.4135C59.0097 75.6579 58.7652 75.7801 58.3986 75.7801ZM69.7652 71.7468C69.5208 71.7468 69.3069 71.6857 69.1236 71.5635C68.9402 71.4412 68.8486 71.2579 68.8486 71.0135V68.0801C68.8486 67.7135 68.9708 67.469 69.2152 67.3468C70.193 66.6135 70.6819 65.6968 70.6819 64.5968V62.0301C70.6819 61.0523 70.3458 60.2273 69.6736 59.5551C69.0013 58.8829 68.1763 58.5468 67.1986 58.5468C66.2208 58.5468 65.3958 58.8829 64.7236 59.5551C64.0513 60.2273 63.7152 61.0523 63.7152 62.0301V64.5968C63.7152 65.6968 64.2041 66.6135 65.1819 67.3468C65.4263 67.469 65.5486 67.7135 65.5486 68.0801V71.0135C65.5486 71.2579 65.4569 71.4412 65.2736 71.5635C65.0902 71.6857 64.8763 71.7468 64.6319 71.7468C64.3875 71.7468 64.1736 71.6857 63.9902 71.5635C63.8069 71.4412 63.7152 71.2579 63.7152 71.0135V68.4468C62.6152 67.469 62.0652 66.1857 62.0652 64.5968V62.0301C62.0652 60.5635 62.5541 59.3412 63.5319 58.3635C64.5097 57.3857 65.7319 56.8968 67.1986 56.8968C68.6652 56.8968 69.8875 57.3857 70.8652 58.3635C71.843 59.3412 72.3319 60.5635 72.3319 62.0301V64.5968C72.3319 66.1857 71.7819 67.469 70.6819 68.4468V71.0135C70.6819 71.2579 70.5902 71.4412 70.4069 71.5635C70.2236 71.6857 70.0097 71.7468 69.7652 71.7468ZM68.1152 69.7301C67.6263 69.7301 67.3513 69.5468 67.2902 69.1801C67.2291 68.8135 67.2597 68.5385 67.3819 68.3551C67.5041 68.1718 67.6875 68.019 67.9319 67.8968C68.6652 67.7746 69.3069 67.4079 69.8569 66.7968C70.4069 66.1857 70.6819 65.4523 70.6819 64.5968C70.6819 64.3523 70.7736 64.1385 70.9569 63.9551C71.1402 63.7718 71.3541 63.6801 71.5986 63.6801C71.843 63.6801 72.0263 63.7718 72.1486 63.9551C72.2708 64.1385 72.3319 64.3523 72.3319 64.5968C72.3319 65.819 71.9652 66.919 71.2319 67.8968C70.4986 68.8746 69.5208 69.4857 68.2986 69.7301H68.1152ZM67.1986 79.2635C64.7541 79.2635 62.4625 78.6523 60.3236 77.4301C58.1847 76.2079 56.5041 74.5273 55.2819 72.3885C54.0597 70.2496 53.4486 67.9273 53.4486 65.4218C53.4486 62.9162 54.0597 60.6246 55.2819 58.5468C56.5041 56.469 58.1847 54.819 60.3236 53.5968C62.4625 52.3746 64.7541 51.7635 67.1986 51.7635C69.643 51.7635 71.9347 52.3746 74.0736 53.5968C76.2125 54.819 77.893 56.469 79.1152 58.5468C80.3375 60.6246 80.9486 62.9162 80.9486 65.4218C80.9486 67.9273 80.3375 70.2496 79.1152 72.3885C77.893 74.5273 76.2125 76.2079 74.0736 77.4301C71.9347 78.6523 69.643 79.2635 67.1986 79.2635ZM67.1986 53.4135C64.9986 53.4135 62.9819 53.9635 61.1486 55.0635C59.3152 56.1635 57.8486 57.6301 56.7486 59.4635C55.6486 61.2968 55.0986 63.3135 55.0986 65.5135C55.0986 67.7135 55.6486 69.7301 56.7486 71.5635C57.8486 73.3968 59.3152 74.8329 61.1486 75.8718C62.9819 76.9107 64.9986 77.4301 67.1986 77.4301C69.3986 77.4301 71.4152 76.9107 73.2486 75.8718C75.0819 74.8329 76.5486 73.3968 77.6486 71.5635C78.7486 69.7301 79.2986 67.7135 79.2986 65.5135C79.2986 63.3135 78.7486 61.2968 77.6486 59.4635C76.5486 57.6301 75.0819 56.1635 73.2486 55.0635C71.4152 53.9635 69.3986 53.4135 67.1986 53.4135ZM89.9319 57.8135C89.443 57.8135 89.1375 57.6607 89.0152 57.3551C88.893 57.0496 88.893 56.8051 89.0152 56.6218C89.1375 56.4385 89.3208 56.2857 89.5652 56.1635C90.0541 55.919 90.4208 56.0412 90.6652 56.5301V56.7135C90.7875 56.9579 90.7875 57.1718 90.6652 57.3551C90.543 57.5385 90.3597 57.6912 90.1152 57.8135H89.9319ZM62.0652 101.63C59.2541 101.63 56.8402 100.622 54.8236 98.6051C52.8069 96.5885 51.7986 94.1135 51.7986 91.1801V87.8801H48.3152C47.9486 87.8801 47.7041 87.7273 47.5819 87.4218C47.4597 87.1162 47.4597 86.7801 47.5819 86.4135L53.6319 77.0635C53.7541 76.819 53.9986 76.6968 54.3652 76.6968C54.7319 76.6968 54.9763 76.819 55.0986 77.0635L61.1486 86.4135C61.2708 86.7801 61.2402 87.1162 61.0569 87.4218C60.8736 87.7273 60.6597 87.8801 60.4152 87.8801H56.9319V91.1801C56.9319 91.4246 56.8402 91.6385 56.6569 91.8218C56.4736 92.0051 56.2597 92.0968 56.0152 92.0968C55.7708 92.0968 55.5875 92.0051 55.4652 91.8218C55.343 91.6385 55.2819 91.4246 55.2819 91.1801V86.9635C55.2819 86.719 55.343 86.5051 55.4652 86.3218C55.5875 86.1385 55.7708 86.0468 56.0152 86.0468H58.7652L54.3652 79.0801L49.9652 86.0468H52.7152C52.8375 86.0468 52.9902 86.1385 53.1736 86.3218C53.3569 86.5051 53.4486 86.719 53.4486 86.9635V91.1801C53.4486 93.6246 54.3041 95.6718 56.0152 97.3218C57.7263 98.9718 59.743 99.7968 62.0652 99.7968C64.0208 99.7968 65.793 99.1857 67.3819 97.9635C67.6263 97.8412 67.8708 97.7801 68.1152 97.7801C68.3597 97.7801 68.543 97.8718 68.6652 98.0551C68.7875 98.2385 68.8486 98.4523 68.8486 98.6968C68.8486 98.9412 68.7875 99.1246 68.6652 99.2468L68.4819 99.4301C66.6486 100.897 64.5097 101.63 62.0652 101.63ZM56.5652 95.5801C56.3208 95.5801 56.0763 95.3968 55.8319 95.0301V94.8468C55.7097 94.6023 55.7097 94.3885 55.8319 94.2051C55.9541 94.0218 56.1375 93.869 56.3819 93.7468C56.6263 93.6246 56.8402 93.6246 57.0236 93.7468C57.2069 93.869 57.3291 94.0523 57.3902 94.2968C57.4513 94.5412 57.4513 94.7551 57.3902 94.9385C57.3291 95.1218 57.1763 95.2746 56.9319 95.3968L56.5652 95.5801ZM92.1319 74.8635C91.8875 74.8635 91.643 74.7412 91.3986 74.4968L85.3486 65.1468C85.2263 64.7801 85.2569 64.444 85.4402 64.1385C85.6236 63.8329 85.8375 63.6801 86.0819 63.6801H89.5652V60.3801C89.5652 60.1357 89.6569 59.9218 89.8402 59.7385C90.0236 59.5551 90.2375 59.4635 90.4819 59.4635C90.7263 59.4635 90.9097 59.5551 91.0319 59.7385C91.1541 59.9218 91.2152 60.1357 91.2152 60.3801V64.5968C91.2152 64.8412 91.1541 65.0551 91.0319 65.2385C90.9097 65.4218 90.7263 65.5135 90.4819 65.5135H87.7319L92.1319 72.4801L96.5319 65.5135H93.9652C93.7208 65.5135 93.5069 65.4218 93.3236 65.2385C93.1402 65.0551 93.0486 64.8412 93.0486 64.5968V60.3801C93.0486 57.9357 92.193 55.8885 90.4819 54.2385C88.7708 52.5885 86.7541 51.7635 84.4319 51.7635C82.3541 51.7635 80.5208 52.3746 78.9319 53.5968C78.8097 53.8412 78.6263 53.9329 78.3819 53.8718C78.1375 53.8107 77.9236 53.6885 77.7402 53.5051C77.5569 53.3218 77.4958 53.1079 77.5569 52.8635C77.618 52.619 77.7097 52.4357 77.8319 52.3135C79.7875 50.7246 81.9875 49.9301 84.4319 49.9301C87.243 49.9301 89.6569 50.9385 91.6736 52.9551C93.6902 54.9718 94.6986 57.4468 94.6986 60.3801V63.6801H98.1819C98.5486 63.6801 98.793 63.8329 98.9152 64.1385C99.0375 64.444 99.0375 64.7801 98.9152 65.1468L92.8652 74.4968C92.743 74.7412 92.4986 74.8635 92.1319 74.8635ZM79.2986 99.7968C76.7319 99.7968 74.4097 99.1857 72.3319 97.9635C70.2541 96.7412 68.6041 95.0912 67.3819 93.0135C66.1597 90.9357 65.5486 88.6135 65.5486 86.0468C65.5486 84.4579 65.793 82.9301 66.2819 81.4635C66.4041 81.3412 66.5569 81.219 66.7402 81.0968C66.9236 80.9746 67.1375 80.944 67.3819 81.0051C67.6263 81.0662 67.7791 81.219 67.8402 81.4635C67.9013 81.7079 67.9319 81.8912 67.9319 82.0135C67.443 83.3579 67.1986 84.7023 67.1986 86.0468C67.1986 88.2468 67.7486 90.2635 68.8486 92.0968C69.9486 93.9301 71.4152 95.3968 73.2486 96.4968C75.0819 97.5968 77.0986 98.1468 79.2986 98.1468C81.4986 98.1468 83.5152 97.5968 85.3486 96.4968C87.1819 95.3968 88.618 93.9301 89.6569 92.0968C90.6958 90.2635 91.2152 88.2468 91.2152 86.0468C91.2152 83.1135 90.2986 80.5468 88.4652 78.3468C86.6319 76.1468 84.3097 74.8023 81.4986 74.3135C81.2541 74.1912 81.0708 74.0385 80.9486 73.8551C80.8263 73.6718 80.7652 73.4579 80.7652 73.2135C80.7652 72.969 80.8875 72.7857 81.1319 72.6635C81.3763 72.5412 81.6208 72.5412 81.8652 72.6635C85.043 73.1523 87.7013 74.6801 89.8402 77.2468C91.9791 79.8135 93.0486 82.7468 93.0486 86.0468C93.0486 88.6135 92.4375 90.9357 91.2152 93.0135C89.993 95.0912 88.3125 96.7412 86.1736 97.9635C84.0347 99.1857 81.743 99.7968 79.2986 99.7968Z" fill="#7F7E97"/>
</g>
<g clip-path="url(#clip1_1_2066)">
<g clip-path="url(#clip2_1_2066)">
<path d="M123 41.2034C122.494 41.5803 122.241 41.9572 121.987 42.0829C120.722 42.5855 119.456 43.088 118.19 43.5906C116.291 44.2188 115.152 45.4753 114.899 47.4856C114.646 49.119 114.392 50.7524 114.013 52.3858C113.886 52.8883 113.506 53.6422 113.127 53.7679C112.367 53.8935 112.367 53.014 112.24 52.5114C111.734 51.0037 111.228 49.3703 110.848 47.8625C110.215 45.7266 108.823 44.5958 106.544 44.5958C105.658 44.5958 104.899 44.4701 104.013 44.3445C103.506 44.3445 103.253 44.0932 103 43.8419C103.253 43.5906 103.38 43.2137 103.633 43.088C104.899 42.5855 106.291 42.0829 107.557 41.7059C108.823 41.329 109.709 40.4495 109.962 39.193C110.468 37.1828 110.848 35.1724 111.354 33.2878C111.608 32.6595 111.354 31.78 112.24 31.78C113.127 31.78 113 32.5339 113.127 33.0365C113.506 34.7955 113.886 36.4289 114.392 38.1879C115.025 40.4495 115.532 40.8264 117.937 40.8264C119.203 40.8264 120.595 40.7008 121.861 40.7008C121.987 40.7008 122.367 40.9521 123 41.2034Z" fill="#CECCFD"/>
<path d="M103 32.4917C102.747 32.6802 102.62 32.8686 102.494 32.9315C101.861 33.1828 101.228 33.434 100.595 33.6853C99.6456 33.9994 99.0759 34.6277 98.9494 35.6328C98.8228 36.4495 98.6962 37.2662 98.5063 38.0829C98.443 38.3342 98.2532 38.7111 98.0633 38.7739C97.6835 38.8368 97.6835 38.397 97.6203 38.1457C97.3671 37.3919 97.1139 36.5752 96.9241 35.8213C96.6076 34.7533 95.9114 34.1879 94.7722 34.1879C94.3291 34.1879 93.9494 34.1251 93.5063 34.0623C93.2532 34.0623 93.1266 33.9366 93 33.811C93.1266 33.6853 93.1899 33.4969 93.3165 33.434C93.9494 33.1828 94.6456 32.9315 95.2785 32.743C95.9114 32.5545 96.3544 32.1148 96.481 31.4865C96.7342 30.4814 96.924 29.4762 97.1772 28.5339C97.3038 28.2198 97.1772 27.78 97.6203 27.78C98.0633 27.78 98 28.157 98.0633 28.4083C98.2532 29.2878 98.443 30.1045 98.6962 30.984C99.0127 32.1148 99.2658 32.3032 100.468 32.3032C101.101 32.3032 101.797 32.2404 102.43 32.2404C102.494 32.2404 102.684 32.3661 103 32.4917Z" fill="#CECCFD"/>
</g>
</g>
<defs>
<linearGradient id="paint0_linear_1_2066" x1="75" y1="0.780029" x2="75" y2="150.78" gradientUnits="userSpaceOnUse">
<stop stop-color="white"/>
<stop offset="1" stop-color="#F1F1FA"/>
</linearGradient>
<clipPath id="clip0_1_2066">
<rect width="55.02" height="55" fill="white" transform="matrix(1 0 0 -1 47.4805 103.28)"/>
</clipPath>
<clipPath id="clip1_1_2066">
<rect width="30" height="26" fill="white" transform="translate(93 27.78)"/>
</clipPath>
<clipPath id="clip2_1_2066">
<rect width="30" height="26" fill="white" transform="translate(93 27.78)"/>
</clipPath>
</defs>
</svg>
