<svg width="19" height="17" viewBox="0 0 19 17" fill="none" xmlns="http://www.w3.org/2000/svg">
<mask id="path-1-inside-1_1_2356" fill="white">
<path d="M12.4236 15.232C13.2547 15.4659 14.1158 15.5842 14.9812 15.5833C16.3729 15.5853 17.7466 15.2777 18.9964 14.6842C19.0334 13.8377 18.7846 13.0026 18.2879 12.3055C17.7911 11.6083 17.0735 11.0872 16.2436 10.821C15.4138 10.5548 14.5171 10.558 13.6894 10.8303C12.8617 11.1026 12.1481 11.629 11.6568 12.3297M12.4236 15.232V15.2292C12.4236 14.178 12.145 13.1892 11.6568 12.3297M12.4236 15.232V15.3321C10.5485 16.4268 8.40025 17.0036 6.21132 17C3.94017 17 1.81517 16.3908 0.000975167 15.3321L9.13266e-07 15.2292C-0.000746721 13.8923 0.457556 12.5931 1.30266 11.5366C2.14776 10.4801 3.33158 9.72629 4.66749 9.394C6.0034 9.06172 7.41541 9.16987 8.6809 9.70141C9.9464 10.233 10.9934 11.1576 11.6568 12.3297M9.50064 3.1875C9.50064 4.03287 9.15419 4.84363 8.5375 5.4414C7.92082 6.03917 7.08442 6.37499 6.21229 6.37499C5.34017 6.37499 4.50377 6.03917 3.88708 5.4414C3.2704 4.84363 2.92395 4.03287 2.92395 3.1875C2.92395 2.34212 3.2704 1.53137 3.88708 0.933596C4.50377 0.335825 5.34017 0 6.21229 0C7.08442 0 7.92082 0.335825 8.5375 0.933596C9.15419 1.53137 9.50064 2.34212 9.50064 3.1875ZM17.5388 5.31249C17.5388 5.97001 17.2694 6.6006 16.7897 7.06553C16.3101 7.53046 15.6595 7.79166 14.9812 7.79166C14.3029 7.79166 13.6524 7.53046 13.1727 7.06553C12.6931 6.6006 12.4236 5.97001 12.4236 5.31249C12.4236 4.65498 12.6931 4.02439 13.1727 3.55946C13.6524 3.09453 14.3029 2.83333 14.9812 2.83333C15.6595 2.83333 16.3101 3.09453 16.7897 3.55946C17.2694 4.02439 17.5388 4.65498 17.5388 5.31249Z"/>
</mask>
<path d="M14.9812 15.5833L14.9826 14.5833L14.9802 14.5833L14.9812 15.5833ZM18.9964 14.6842L19.4253 15.5875L19.9692 15.3293L19.9955 14.7278L18.9964 14.6842ZM11.6568 12.3297L10.7866 12.8223L10.7873 12.8236L11.6568 12.3297ZM12.4236 15.3321L12.9278 16.1957L13.4236 15.9062V15.3321H12.4236ZM6.21132 17L6.21295 16H6.21132V17ZM0.000975167 15.3321L-0.99898 15.3416L-0.993605 15.9095L-0.503053 16.1958L0.000975167 15.3321ZM9.13266e-07 15.2292L-1.00004 15.2297L-0.999954 15.2386L9.13266e-07 15.2292ZM9.50064 3.1875H10.5006H9.50064ZM2.92395 3.1875H1.92395H2.92395ZM6.21229 0V-1V0ZM17.5388 5.31249H18.5388H17.5388ZM14.9812 7.79166V8.79166V7.79166ZM12.4236 5.31249H11.4236H12.4236ZM14.9812 2.83333V1.83333V2.83333ZM12.1527 16.1946C13.0725 16.4534 14.0251 16.5843 14.9822 16.5833L14.9802 14.5833C14.2065 14.5841 13.4369 14.4783 12.6945 14.2694L12.1527 16.1946ZM14.9798 16.5833C16.5195 16.5855 18.0402 16.2452 19.4253 15.5875L18.5675 13.7809C17.4529 14.3101 16.2264 14.5851 14.9826 14.5833L14.9798 16.5833ZM19.9955 14.7278C20.0422 13.6561 19.7269 12.6018 19.1023 11.7252L17.4735 12.8858C17.8423 13.4034 18.0245 14.0193 17.9974 14.6406L19.9955 14.7278ZM19.1023 11.7252C18.478 10.849 17.5802 10.1995 16.5491 9.86876L15.9382 11.7732C16.5667 11.9748 17.1042 12.3676 17.4735 12.8858L19.1023 11.7252ZM16.5491 9.86876C15.5183 9.53808 14.4053 9.54214 13.377 9.88038L14.0019 11.7802C14.629 11.574 15.3094 11.5715 15.9382 11.7732L16.5491 9.86876ZM13.377 9.88038C12.3483 10.2187 11.4555 10.8749 10.838 11.7556L12.4756 12.9038C12.8407 12.3831 13.3751 11.9864 14.0019 11.7802L13.377 9.88038ZM13.4236 15.232V15.2292H11.4236V15.232H13.4236ZM13.4236 15.2292C13.4236 13.9988 13.097 12.8405 12.5264 11.8358L10.7873 12.8236C11.1929 13.5378 11.4236 14.3571 11.4236 15.2292H13.4236ZM11.4236 15.232V15.3321H13.4236V15.232H11.4236ZM11.9194 14.4685C10.1991 15.4728 8.22568 16.0033 6.21295 16L6.20968 18C8.57482 18.0039 10.8979 17.3808 12.9278 16.1957L11.9194 14.4685ZM6.21132 16C4.12078 16 2.16927 15.4396 0.505003 14.4684L-0.503053 16.1958C1.46106 17.342 3.75955 18 6.21132 18V16ZM1.00093 15.3226L0.999956 15.2197L-0.999954 15.2386L-0.99898 15.3416L1.00093 15.3226ZM1 15.2286C0.999382 14.1219 1.37856 13.0427 2.08357 12.1613L0.521746 10.912C-0.463445 12.1436 -1.00088 13.6626 -0.999999 15.2297L1 15.2286ZM2.08357 12.1613C2.78905 11.2793 3.78184 10.6448 4.90887 10.3644L4.42611 8.42357C2.88132 8.80781 1.50646 9.68093 0.521746 10.912L2.08357 12.1613ZM4.90887 10.3644C6.03616 10.084 7.22762 10.1756 8.29365 10.6234L9.06816 8.77944C7.6032 8.16411 5.97065 8.03939 4.42611 8.42357L4.90887 10.3644ZM8.29365 10.6234C9.35928 11.071 10.2344 11.8468 10.7866 12.8223L12.5271 11.8371C11.7524 10.4685 10.5335 9.39493 9.06816 8.77944L8.29365 10.6234ZM8.50064 3.1875C8.50064 3.75743 8.26736 4.31056 7.84149 4.72337L9.23351 6.15943C10.041 5.37669 10.5006 4.30832 10.5006 3.1875H8.50064ZM7.84149 4.72337C7.41457 5.1372 6.82908 5.37499 6.21229 5.37499V7.37499C7.33976 7.37499 8.42707 6.94114 9.23351 6.15943L7.84149 4.72337ZM6.21229 5.37499C5.59551 5.37499 5.01002 5.1372 4.58309 4.72337L3.19107 6.15943C3.99751 6.94114 5.08483 7.37499 6.21229 7.37499V5.37499ZM4.58309 4.72337C4.15723 4.31056 3.92395 3.75743 3.92395 3.1875H1.92395C1.92395 4.30832 2.38357 5.37669 3.19107 6.15943L4.58309 4.72337ZM3.92395 3.1875C3.92395 2.61757 4.15723 2.06443 4.58309 1.65163L3.19107 0.215565C2.38357 0.998301 1.92395 2.06668 1.92395 3.1875H3.92395ZM4.58309 1.65163C5.01002 1.23779 5.59551 1 6.21229 1V-1C5.08483 -1 3.99751 -0.566145 3.19107 0.215565L4.58309 1.65163ZM6.21229 1C6.82908 1 7.41457 1.23779 7.84149 1.65163L9.23351 0.215565C8.42707 -0.566145 7.33976 -1 6.21229 -1V1ZM7.84149 1.65163C8.26736 2.06443 8.50064 2.61757 8.50064 3.1875H10.5006C10.5006 2.06667 10.041 0.998301 9.23351 0.215565L7.84149 1.65163ZM16.5388 5.31249C16.5388 5.69457 16.3825 6.06753 16.0937 6.3475L17.4857 7.78356C18.1562 7.13366 18.5388 6.24546 18.5388 5.31249H16.5388ZM16.0937 6.3475C15.8038 6.62849 15.4042 6.79166 14.9812 6.79166V8.79166C15.9149 8.79166 16.8163 8.43243 17.4857 7.78356L16.0937 6.3475ZM14.9812 6.79166C14.5582 6.79166 14.1586 6.62849 13.8687 6.3475L12.4767 7.78356C13.1461 8.43243 14.0476 8.79166 14.9812 8.79166V6.79166ZM13.8687 6.3475C13.5799 6.06753 13.4236 5.69457 13.4236 5.31249H11.4236C11.4236 6.24546 11.8062 7.13366 12.4767 7.78356L13.8687 6.3475ZM13.4236 5.31249C13.4236 4.93042 13.5799 4.55746 13.8687 4.27749L12.4767 2.84143C11.8062 3.49133 11.4236 4.37953 11.4236 5.31249H13.4236ZM13.8687 4.27749C14.1586 3.9965 14.5582 3.83333 14.9812 3.83333V1.83333C14.0476 1.83333 13.1461 2.19256 12.4767 2.84143L13.8687 4.27749ZM14.9812 3.83333C15.4042 3.83333 15.8038 3.9965 16.0937 4.27749L17.4857 2.84143C16.8163 2.19256 15.9149 1.83333 14.9812 1.83333V3.83333ZM16.0937 4.27749C16.3825 4.55746 16.5388 4.93042 16.5388 5.31249H18.5388C18.5388 4.37953 18.1562 3.49133 17.4857 2.84143L16.0937 4.27749Z" fill="#888888" mask="url(#path-1-inside-1_1_2356)"/>
</svg>
